{"accessors":[{"bufferView":0,"byteOffset":0,"componentType":5126,"count":4,"max":[-0.0155,0.008000000000000002,-0.00396153846153846],"min":[-0.0265,0.008000000000000002,-0.013000000000000002],"type":"VEC3"},{"bufferView":0,"byteOffset":48,"componentType":5126,"count":12,"max":[0.0265,0.013000000000000002,-0.013000000000000002],"min":[-0.0265,-0.013000000000000002,-0.013000000000000002],"type":"VEC3"},{"bufferView":0,"byteOffset":192,"componentType":5126,"count":4,"max":[-0.0155,0.013000000000000003,-0.00396153846153846],"min":[-0.0155,0.008000000000000002,-0.013000000000000002],"type":"VEC3"},{"bufferView":0,"byteOffset":240,"componentType":5126,"count":16,"max":[0.0265,0.013000000000000002,0.013000000000000002],"min":[-0.0265,-0.013000000000000002,-0.008],"type":"VEC3"},{"bufferView":0,"byteOffset":432,"componentType":5126,"count":6,"max":[-0.0265,0.008,0.013000000000000002],"min":[-0.0265,-0.013000000000000003,-0.013000000000000002],"type":"VEC3"},{"bufferView":0,"byteOffset":504,"componentType":5126,"count":6,"max":[0.0265,-0.012999999999999998,0.013000000000000002],"min":[-0.0265,-0.013000000000000003,-0.013000000000000002],"type":"VEC3"},{"bufferView":0,"byteOffset":576,"componentType":5126,"count":4,"max":[0.0155,0.013000000000000003,-0.008],"min":[-0.0155,0.012999999999999998,-0.013000000000000002],"type":"VEC3"},{"bufferView":0,"byteOffset":624,"componentType":5126,"count":6,"max":[0.0265,0.008000000000000013,0.013000000000000002],"min":[0.0265,-0.013000000000000002,-0.013000000000000002],"type":"VEC3"},{"bufferView":0,"byteOffset":696,"componentType":5126,"count":4,"max":[0.0155,0.013000000000000002,-0.00396153846153846],"min":[0.0155,0.008,-0.013000000000000002],"type":"VEC3"},{"bufferView":0,"byteOffset":744,"componentType":5126,"count":4,"max":[0.0265,0.00800000000000001,-0.00396153846153846],"min":[0.0155,0.008,-0.013000000000000002],"type":"VEC3"},{"bufferView":0,"byteOffset":792,"componentType":5126,"count":4,"max":[-0.0085,0.00567058832488932,0.00860164025038665],"min":[-0.0085,-0.007554411738573951,-0.013000000000000002],"type":"VEC3"},{"bufferView":0,"byteOffset":840,"componentType":5126,"count":4,"max":[0.0085,-0.00755441173857394,0.00860164025038665],"min":[-0.0085,-0.007554411738573951,-0.013000000000000002],"type":"VEC3"},{"bufferView":0,"byteOffset":888,"componentType":5126,"count":4,"max":[0.0085,0.00567058832488932,0.00860164025038665],"min":[0.00849999999999999,-0.00755441173857394,-0.013000000000000002],"type":"VEC3"},{"bufferView":0,"byteOffset":936,"componentType":5126,"count":4,"max":[0.00849999999999999,0.00567058832488932,-0.00208009057010291],"min":[-0.0085,0.00567058832488932,-0.013000000000000002],"type":"VEC3"},{"bufferView":0,"byteOffset":984,"componentType":5126,"count":4,"max":[-0.0195,0.0037,0.013000000000000002],"min":[-0.0265,0.0036999999999999999,-0.000488461538461543],"type":"VEC3"},{"bufferView":0,"byteOffset":1032,"componentType":5126,"count":3,"max":[-0.0195,0.0037,0.013000000000000002],"min":[-0.0195,-0.013000000000000002,-0.000488461538461543],"type":"VEC3"},{"bufferView":0,"byteOffset":1068,"componentType":5126,"count":3,"max":[0.0195,0.00370000000000001,0.013000000000000002],"min":[0.0195,-0.013000000000000002,-0.00048846153846154],"type":"VEC3"},{"bufferView":0,"byteOffset":1104,"componentType":5126,"count":4,"max":[0.0265,0.00370000000000001,0.013000000000000002],"min":[0.0195,0.0037,-0.00048846153846154],"type":"VEC3"},{"bufferView":0,"byteOffset":1152,"componentType":5126,"count":4,"max":[-0.0195,0.0037,0.013000000000000002],"min":[-0.0265,-0.013000000000000002,0.013000000000000002],"type":"VEC3"},{"bufferView":0,"byteOffset":1200,"componentType":5126,"count":4,"max":[0.0265,0.00370000000000001,0.013000000000000002],"min":[0.0195,-0.013000000000000002,0.013000000000000002],"type":"VEC3"},{"bufferView":1,"byteOffset":0,"componentType":5126,"count":4,"type":"VEC3"},{"bufferView":1,"byteOffset":48,"componentType":5126,"count":12,"type":"VEC3"},{"bufferView":1,"byteOffset":192,"componentType":5126,"count":4,"type":"VEC3"},{"bufferView":1,"byteOffset":240,"componentType":5126,"count":16,"type":"VEC3"},{"bufferView":1,"byteOffset":432,"componentType":5126,"count":6,"type":"VEC3"},{"bufferView":1,"byteOffset":504,"componentType":5126,"count":6,"type":"VEC3"},{"bufferView":1,"byteOffset":576,"componentType":5126,"count":4,"type":"VEC3"},{"bufferView":1,"byteOffset":624,"componentType":5126,"count":6,"type":"VEC3"},{"bufferView":1,"byteOffset":696,"componentType":5126,"count":4,"type":"VEC3"},{"bufferView":1,"byteOffset":744,"componentType":5126,"count":4,"type":"VEC3"},{"bufferView":1,"byteOffset":792,"componentType":5126,"count":4,"type":"VEC3"},{"bufferView":1,"byteOffset":840,"componentType":5126,"count":4,"type":"VEC3"},{"bufferView":1,"byteOffset":888,"componentType":5126,"count":4,"type":"VEC3"},{"bufferView":1,"byteOffset":936,"componentType":5126,"count":4,"type":"VEC3"},{"bufferView":1,"byteOffset":984,"componentType":5126,"count":4,"type":"VEC3"},{"bufferView":1,"byteOffset":1032,"componentType":5126,"count":3,"type":"VEC3"},{"bufferView":1,"byteOffset":1068,"componentType":5126,"count":3,"type":"VEC3"},{"bufferView":1,"byteOffset":1104,"componentType":5126,"count":4,"type":"VEC3"},{"bufferView":1,"byteOffset":1152,"componentType":5126,"count":4,"type":"VEC3"},{"bufferView":1,"byteOffset":1200,"componentType":5126,"count":4,"type":"VEC3"},{"bufferView":2,"byteOffset":0,"componentType":5123,"count":6,"type":"SCALAR"},{"bufferView":2,"byteOffset":12,"componentType":5123,"count":36,"type":"SCALAR"},{"bufferView":2,"byteOffset":84,"componentType":5123,"count":6,"type":"SCALAR"},{"bufferView":2,"byteOffset":96,"componentType":5123,"count":48,"type":"SCALAR"},{"bufferView":2,"byteOffset":192,"componentType":5123,"count":12,"type":"SCALAR"},{"bufferView":2,"byteOffset":216,"componentType":5123,"count":12,"type":"SCALAR"},{"bufferView":2,"byteOffset":240,"componentType":5123,"count":6,"type":"SCALAR"},{"bufferView":2,"byteOffset":252,"componentType":5123,"count":12,"type":"SCALAR"},{"bufferView":2,"byteOffset":276,"componentType":5123,"count":6,"type":"SCALAR"},{"bufferView":2,"byteOffset":288,"componentType":5123,"count":6,"type":"SCALAR"},{"bufferView":2,"byteOffset":300,"componentType":5123,"count":6,"type":"SCALAR"},{"bufferView":2,"byteOffset":312,"componentType":5123,"count":6,"type":"SCALAR"},{"bufferView":2,"byteOffset":324,"componentType":5123,"count":6,"type":"SCALAR"},{"bufferView":2,"byteOffset":336,"componentType":5123,"count":6,"type":"SCALAR"},{"bufferView":2,"byteOffset":348,"componentType":5123,"count":6,"type":"SCALAR"},{"bufferView":2,"byteOffset":360,"componentType":5123,"count":3,"type":"SCALAR"},{"bufferView":2,"byteOffset":368,"componentType":5123,"count":3,"type":"SCALAR"},{"bufferView":2,"byteOffset":376,"componentType":5123,"count":6,"type":"SCALAR"},{"bufferView":2,"byteOffset":388,"componentType":5123,"count":6,"type":"SCALAR"},{"bufferView":2,"byteOffset":400,"componentType":5123,"count":6,"type":"SCALAR"}],"asset":{"generator":"Open CASCADE Technology 7.6 [dev.opencascade.org]","version":"2.0"},"bufferViews":[{"buffer":0,"byteLength":1248,"byteOffset":0,"byteStride":12,"target":34962},{"buffer":0,"byteLength":1248,"byteOffset":1248,"byteStride":12,"target":34962},{"buffer":0,"byteLength":412,"byteOffset":2496,"target":34963}],"buffers":[{"byteLength":2908,"uri":"Basic_Part_Design_Tutorial-refine_Pocket001.bin"}],"materials":[{"name":"mat_0","pbrMetallicRoughness":{"baseColorFactor":[0.6038273572921753,0.6038273572921753,0.6038273572921753,1.0]},"doubleSided":true}],"meshes":[{"name":"refine_Pocket001","primitives":[{"attributes":{"NORMAL":20,"POSITION":0},"indices":40,"material":0,"mode":4},{"attributes":{"NORMAL":21,"POSITION":1},"indices":41,"material":0,"mode":4},{"attributes":{"NORMAL":22,"POSITION":2},"indices":42,"material":0,"mode":4},{"attributes":{"NORMAL":23,"POSITION":3},"indices":43,"material":0,"mode":4},{"attributes":{"NORMAL":24,"POSITION":4},"indices":44,"material":0,"mode":4},{"attributes":{"NORMAL":25,"POSITION":5},"indices":45,"material":0,"mode":4},{"attributes":{"NORMAL":26,"POSITION":6},"indices":46,"material":0,"mode":4},{"attributes":{"NORMAL":27,"POSITION":7},"indices":47,"material":0,"mode":4},{"attributes":{"NORMAL":28,"POSITION":8},"indices":48,"material":0,"mode":4},{"attributes":{"NORMAL":29,"POSITION":9},"indices":49,"material":0,"mode":4},{"attributes":{"NORMAL":30,"POSITION":10},"indices":50,"material":0,"mode":4},{"attributes":{"NORMAL":31,"POSITION":11},"indices":51,"material":0,"mode":4},{"attributes":{"NORMAL":32,"POSITION":12},"indices":52,"material":0,"mode":4},{"attributes":{"NORMAL":33,"POSITION":13},"indices":53,"material":0,"mode":4},{"attributes":{"NORMAL":34,"POSITION":14},"indices":54,"material":0,"mode":4},{"attributes":{"NORMAL":35,"POSITION":15},"indices":55,"material":0,"mode":4},{"attributes":{"NORMAL":36,"POSITION":16},"indices":56,"material":0,"mode":4},{"attributes":{"NORMAL":37,"POSITION":17},"indices":57,"material":0,"mode":4},{"attributes":{"NORMAL":38,"POSITION":18},"indices":58,"material":0,"mode":4},{"attributes":{"NORMAL":39,"POSITION":19},"indices":59,"material":0,"mode":4}]}],"nodes":[{"mesh":0,"name":"refine_Pocket001"}],"scene":0,"scenes":[{"nodes":[0]}]}