{"accessors":[{"bufferView":0,"byteOffset":0,"componentType":5126,"count":54,"max":[0.014999999999999995,0.06440000000000001,0.014890633111470804],"min":[-0.014999999999999996,0.0029999999999999894,-0.014890633111470854],"type":"VEC3"},{"bufferView":0,"byteOffset":648,"componentType":5126,"count":52,"max":[0.018999999999999994,0.06440000000000001,0.018861468607862979],"min":[-0.018999999999999997,0.06439999999999999,-0.01886146860786307],"type":"VEC3"},{"bufferView":0,"byteOffset":1272,"componentType":5126,"count":54,"max":[0.018499999999999993,0.0030000000000000089,0.018365114170813998],"min":[-0.018499999999999997,-1.230462649444538e-17,-0.018365114170814],"type":"VEC3"},{"bufferView":0,"byteOffset":1920,"componentType":5126,"count":54,"max":[0.018999999999999994,0.0884,0.018861468607862979],"min":[-0.018999999999999997,0.06439999999999999,-0.01886146860786309],"type":"VEC3"},{"bufferView":0,"byteOffset":2568,"componentType":5126,"count":162,"max":[0.044999999999999987,3.56503755535782e-17,0.04499999999999999],"min":[-0.04499999999999999,-3.56503755535782e-17,-0.04499999999999999],"type":"VEC3"},{"bufferView":0,"byteOffset":4512,"componentType":5126,"count":52,"max":[0.02499999999999999,0.0884,0.02481772185245128],"min":[-0.024999999999999996,0.08839999999999998,-0.02481772185245141],"type":"VEC3"},{"bufferView":0,"byteOffset":5136,"componentType":5126,"count":66,"max":[0.044999999999999987,0.014200000000000027,0.04499999999999999],"min":[-0.04499999999999999,-3.0149999999999997e-17,-0.045],"type":"VEC3"},{"bufferView":0,"byteOffset":5928,"componentType":5126,"count":54,"max":[-0.016730970388580535,0.014199999999999979,-0.0167765399254677],"min":[-0.029230970388580539,-3.56503755535782e-17,-0.029185400851693394],"type":"VEC3"},{"bufferView":0,"byteOffset":6576,"componentType":5126,"count":54,"max":[-0.016730970388580535,0.014200000000000029,0.029185400851693374],"min":[-0.029230970388580539,2.0511565223582877e-17,0.01677653992546768],"type":"VEC3"},{"bufferView":0,"byteOffset":7224,"componentType":5126,"count":54,"max":[0.029230970388580536,0.014200000000000029,0.029185400851693374],"min":[0.016730970388580538,2.0511565223582877e-17,0.01677653992546768],"type":"VEC3"},{"bufferView":0,"byteOffset":7872,"componentType":5126,"count":54,"max":[0.029230970388580536,0.014199999999999979,-0.0167765399254677],"min":[0.016730970388580538,-3.56503755535782e-17,-0.029185400851693394],"type":"VEC3"},{"bufferView":0,"byteOffset":8520,"componentType":5126,"count":54,"max":[0.02499999999999999,0.0884,0.024817721852451306],"min":[-0.024999999999999996,0.05839999999999998,-0.02481772185245141],"type":"VEC3"},{"bufferView":0,"byteOffset":9168,"componentType":5126,"count":162,"max":[0.044999999999999987,0.014200000000000029,0.044999999999999987],"min":[-0.04499999999999999,0.014199999999999965,-0.045],"type":"VEC3"},{"bufferView":0,"byteOffset":11112,"componentType":5126,"count":52,"max":[0.02499999999999999,0.05840000000000001,0.024817721852451306],"min":[-0.024999999999999996,0.05839999999999998,-0.024817721852451389],"type":"VEC3"},{"bufferView":0,"byteOffset":11736,"componentType":5126,"count":54,"max":[0.019999999999999995,0.05840000000000001,0.019854177481961067],"min":[-0.019999999999999998,0.014199999999999984,-0.019854177481961126],"type":"VEC3"},{"bufferView":1,"byteOffset":0,"componentType":5126,"count":54,"type":"VEC3"},{"bufferView":1,"byteOffset":648,"componentType":5126,"count":52,"type":"VEC3"},{"bufferView":1,"byteOffset":1272,"componentType":5126,"count":54,"type":"VEC3"},{"bufferView":1,"byteOffset":1920,"componentType":5126,"count":54,"type":"VEC3"},{"bufferView":1,"byteOffset":2568,"componentType":5126,"count":162,"type":"VEC3"},{"bufferView":1,"byteOffset":4512,"componentType":5126,"count":52,"type":"VEC3"},{"bufferView":1,"byteOffset":5136,"componentType":5126,"count":66,"type":"VEC3"},{"bufferView":1,"byteOffset":5928,"componentType":5126,"count":54,"type":"VEC3"},{"bufferView":1,"byteOffset":6576,"componentType":5126,"count":54,"type":"VEC3"},{"bufferView":1,"byteOffset":7224,"componentType":5126,"count":54,"type":"VEC3"},{"bufferView":1,"byteOffset":7872,"componentType":5126,"count":54,"type":"VEC3"},{"bufferView":1,"byteOffset":8520,"componentType":5126,"count":54,"type":"VEC3"},{"bufferView":1,"byteOffset":9168,"componentType":5126,"count":162,"type":"VEC3"},{"bufferView":1,"byteOffset":11112,"componentType":5126,"count":52,"type":"VEC3"},{"bufferView":1,"byteOffset":11736,"componentType":5126,"count":54,"type":"VEC3"},{"bufferView":2,"byteOffset":0,"componentType":5123,"count":156,"type":"SCALAR"},{"bufferView":2,"byteOffset":312,"componentType":5123,"count":156,"type":"SCALAR"},{"bufferView":2,"byteOffset":624,"componentType":5123,"count":156,"type":"SCALAR"},{"bufferView":2,"byteOffset":936,"componentType":5123,"count":156,"type":"SCALAR"},{"bufferView":2,"byteOffset":1248,"componentType":5123,"count":510,"type":"SCALAR"},{"bufferView":2,"byteOffset":2268,"componentType":5123,"count":156,"type":"SCALAR"},{"bufferView":2,"byteOffset":2580,"componentType":5123,"count":192,"type":"SCALAR"},{"bufferView":2,"byteOffset":2964,"componentType":5123,"count":156,"type":"SCALAR"},{"bufferView":2,"byteOffset":3276,"componentType":5123,"count":156,"type":"SCALAR"},{"bufferView":2,"byteOffset":3588,"componentType":5123,"count":156,"type":"SCALAR"},{"bufferView":2,"byteOffset":3900,"componentType":5123,"count":156,"type":"SCALAR"},{"bufferView":2,"byteOffset":4212,"componentType":5123,"count":156,"type":"SCALAR"},{"bufferView":2,"byteOffset":4524,"componentType":5123,"count":510,"type":"SCALAR"},{"bufferView":2,"byteOffset":5544,"componentType":5123,"count":156,"type":"SCALAR"},{"bufferView":2,"byteOffset":5856,"componentType":5123,"count":156,"type":"SCALAR"}],"asset":{"generator":"Open CASCADE Technology 7.6 [dev.opencascade.org]","version":"2.0"},"bufferViews":[{"buffer":0,"byteLength":12384,"byteOffset":0,"byteStride":12,"target":34962},{"buffer":0,"byteLength":12384,"byteOffset":12384,"byteStride":12,"target":34962},{"buffer":0,"byteLength":6168,"byteOffset":24768,"target":34963}],"buffers":[{"byteLength":30936,"uri":"page59_bysalp-Body.bin"}],"materials":[{"name":"mat_0","pbrMetallicRoughness":{"baseColorFactor":[0.6038273572921753,0.6038273572921753,0.6038273572921753,1.0]},"doubleSided":true}],"meshes":[{"name":"Body","primitives":[{"attributes":{"NORMAL":15,"POSITION":0},"indices":30,"material":0,"mode":4},{"attributes":{"NORMAL":16,"POSITION":1},"indices":31,"material":0,"mode":4},{"attributes":{"NORMAL":17,"POSITION":2},"indices":32,"material":0,"mode":4},{"attributes":{"NORMAL":18,"POSITION":3},"indices":33,"material":0,"mode":4},{"attributes":{"NORMAL":19,"POSITION":4},"indices":34,"material":0,"mode":4},{"attributes":{"NORMAL":20,"POSITION":5},"indices":35,"material":0,"mode":4},{"attributes":{"NORMAL":21,"POSITION":6},"indices":36,"material":0,"mode":4},{"attributes":{"NORMAL":22,"POSITION":7},"indices":37,"material":0,"mode":4},{"attributes":{"NORMAL":23,"POSITION":8},"indices":38,"material":0,"mode":4},{"attributes":{"NORMAL":24,"POSITION":9},"indices":39,"material":0,"mode":4},{"attributes":{"NORMAL":25,"POSITION":10},"indices":40,"material":0,"mode":4},{"attributes":{"NORMAL":26,"POSITION":11},"indices":41,"material":0,"mode":4},{"attributes":{"NORMAL":27,"POSITION":12},"indices":42,"material":0,"mode":4},{"attributes":{"NORMAL":28,"POSITION":13},"indices":43,"material":0,"mode":4},{"attributes":{"NORMAL":29,"POSITION":14},"indices":44,"material":0,"mode":4}]}],"nodes":[{"mesh":0,"name":"Body"}],"scene":0,"scenes":[{"nodes":[0]}]}