{"accessors":[{"bufferView":0,"byteOffset":0,"componentType":5126,"count":153,"max":[0.20601587052939072,2.4429151702023467e-19,0.13362347973730266],"min":[-0.2060158705293908,-2.1576546008842987e-19,-0.23251],"type":"VEC3"},{"bufferView":0,"byteOffset":1836,"componentType":5126,"count":32,"max":[-0.050662486121389908,0.0049900000000000009,0.1310521739199148],"min":[-0.1503913586135219,0.0,0.08324148606542409],"type":"VEC3"},{"bufferView":0,"byteOffset":2220,"componentType":5126,"count":64,"max":[-0.14744829073054034,0.0049900000000000009,0.1385940214079435],"min":[-0.2056810333988042,0.0,0.11625499999999993],"type":"VEC3"},{"bufferView":0,"byteOffset":2988,"componentType":5126,"count":42,"max":[0.15039135861352147,0.004990000000000001,0.13105217391991506],"min":[-0.051673709344372858,-2.1576546008842987e-19,0.07837673762864808],"type":"VEC3"},{"bufferView":0,"byteOffset":3492,"componentType":5126,"count":64,"max":[-0.18520037186687314,0.0049900000000000009,0.11874999999999993],"min":[-0.2110010035735782,0.0,0.06216787855728401],"type":"VEC3"},{"bufferView":0,"byteOffset":4260,"componentType":5126,"count":65,"max":[0.20568103339880412,0.004990000000000001,0.1385940214079436],"min":[0.1474482907305401,0.0,0.11625500000000011],"type":"VEC3"},{"bufferView":0,"byteOffset":5040,"componentType":5126,"count":32,"max":[-0.09792609625361189,0.0049900000000000009,0.06673149820726283],"min":[-0.18721865720109299,0.0,-0.000188974887924559],"type":"VEC3"},{"bufferView":0,"byteOffset":5424,"componentType":5126,"count":64,"max":[0.21100100357357816,0.0049900000000000009,0.11875000000000012],"min":[0.18520037186687308,0.0,0.062167878557283968],"type":"VEC3"},{"bufferView":0,"byteOffset":6192,"componentType":5126,"count":32,"max":[-0.04625238690923931,0.0049900000000000009,0.0031300019672879395],"min":[-0.10165228635001919,0.0,-0.08793897488792472],"type":"VEC3"},{"bufferView":0,"byteOffset":6576,"componentType":5126,"count":32,"max":[0.18721865720109297,0.0049900000000000009,0.0667314982072628],"min":[0.09792609625361207,0.0,-0.00018897488792436002],"type":"VEC3"},{"bufferView":0,"byteOffset":6960,"componentType":5126,"count":32,"max":[-0.03350170235778828,0.0049900000000000009,-0.08637148803271223],"min":[-0.05098980022862955,0.0,-0.19375397593066832],"type":"VEC3"},{"bufferView":0,"byteOffset":7344,"componentType":5126,"count":32,"max":[0.10165228635001936,0.0049900000000000009,0.0031300019672881095],"min":[0.04625238690923928,0.0,-0.08793897488792471],"type":"VEC3"},{"bufferView":0,"byteOffset":7728,"componentType":5126,"count":64,"max":[2.0461094043711523e-17,0.0049900000000000009,-0.19322005247719888],"min":[-0.03977036647055278,0.0,-0.23750000000000003],"type":"VEC3"},{"bufferView":0,"byteOffset":8496,"componentType":5126,"count":32,"max":[0.05098980022862955,0.0049900000000000009,-0.08637148803271223],"min":[0.033501702357788248,0.0,-0.1937539759306683],"type":"VEC3"},{"bufferView":0,"byteOffset":8880,"componentType":5126,"count":64,"max":[0.0397703664705528,0.0049900000000000009,-0.19322005247719888],"min":[1.7000000000000003e-17,0.0,-0.23750000000000003],"type":"VEC3"},{"bufferView":0,"byteOffset":9648,"componentType":5126,"count":4,"max":[1.8e-17,0.01,-0.02925000000000001],"min":[-0.050662486121389658,0.0,-0.0585],"type":"VEC3"},{"bufferView":0,"byteOffset":9696,"componentType":5126,"count":4,"max":[-0.050662486121389658,0.01,0.02925000000000001],"min":[-0.05066248612138966,0.0,-0.02925000000000001],"type":"VEC3"},{"bufferView":0,"byteOffset":9744,"componentType":5126,"count":4,"max":[-2.1e-17,0.01,0.0585],"min":[-0.05066248612138966,0.0,0.02925000000000001],"type":"VEC3"},{"bufferView":0,"byteOffset":9792,"componentType":5126,"count":4,"max":[0.05066248612138966,0.01,0.0585],"min":[-2.1e-17,0.0,0.02925000000000001],"type":"VEC3"},{"bufferView":0,"byteOffset":9840,"componentType":5126,"count":4,"max":[0.05066248612138966,0.01,0.02925000000000001],"min":[0.05066248612138966,0.0,-0.029249999999999989],"type":"VEC3"},{"bufferView":0,"byteOffset":9888,"componentType":5126,"count":4,"max":[0.05066248612138966,0.01,-0.029249999999999989],"min":[1.8e-17,0.0,-0.0585],"type":"VEC3"},{"bufferView":0,"byteOffset":9936,"componentType":5126,"count":54,"max":[0.019854177481961087,0.01,-0.1775],"min":[-0.019854177481961087,0.0,-0.2175],"type":"VEC3"},{"bufferView":0,"byteOffset":10584,"componentType":5126,"count":54,"max":[-0.15105623728399526,0.01,0.11868514616268416],"min":[-0.19102379721085806,0.0,0.07881485383731575],"type":"VEC3"},{"bufferView":0,"byteOffset":11232,"componentType":5126,"count":54,"max":[0.191023797210858,0.01,0.11868514616268429],"min":[0.1510562372839952,0.0,0.0788148538373159],"type":"VEC3"},{"bufferView":0,"byteOffset":11880,"componentType":5126,"count":20,"max":[0.14744829073054015,0.005010000000000003,0.13105217391991506],"min":[-0.1474482907305404,0.0049900000000000009,0.08333768582007903],"type":"VEC3"},{"bufferView":0,"byteOffset":12120,"componentType":5126,"count":30,"max":[-0.14744829073054034,0.005010000000000003,0.1385940214079435],"min":[-0.2110010035735782,0.0049900000000000009,0.062167878557283808],"type":"VEC3"},{"bufferView":0,"byteOffset":12480,"componentType":5126,"count":30,"max":[0.21100100357357816,0.005010000000000004,0.1385940214079436],"min":[0.1474482907305401,0.0049900000000000009,0.0621678785572839],"type":"VEC3"},{"bufferView":0,"byteOffset":12840,"componentType":5126,"count":20,"max":[-0.03848863885813364,0.005010000000000003,0.06216787855728401],"min":[-0.18721865720109299,0.0049900000000000009,-0.19322005247719888],"type":"VEC3"},{"bufferView":0,"byteOffset":13080,"componentType":5126,"count":20,"max":[0.18721865720109297,0.005010000000000003,0.062167878557283968],"min":[0.03848863885813364,0.0049900000000000009,-0.19322005247719888],"type":"VEC3"},{"bufferView":0,"byteOffset":13320,"componentType":5126,"count":30,"max":[0.0397703664705528,0.005010000000000003,-0.19322005247719885],"min":[-0.0397703664705528,0.0049900000000000009,-0.23750000000000003],"type":"VEC3"},{"bufferView":0,"byteOffset":13680,"componentType":5126,"count":155,"max":[0.20603459167247635,0.010000000000000006,0.13362347973730266],"min":[-0.2060158705293908,0.01,-0.23251],"type":"VEC3"},{"bufferView":0,"byteOffset":15540,"componentType":5126,"count":32,"max":[-0.05066248612138986,0.010000000000000004,0.13105217391991487],"min":[-0.15039135861352194,0.005010000000000003,0.08324148606542406],"type":"VEC3"},{"bufferView":0,"byteOffset":15924,"componentType":5126,"count":32,"max":[0.05167370934437287,0.010000000000000004,0.08812794977584912],"min":[-0.05167370934437282,0.005010000000000003,0.07854043606563659],"type":"VEC3"},{"bufferView":0,"byteOffset":16308,"componentType":5126,"count":32,"max":[0.15039135861352175,0.010000000000000004,0.13105217391991506],"min":[0.05066248612138992,0.005010000000000003,0.08324148606542417],"type":"VEC3"},{"bufferView":0,"byteOffset":16692,"componentType":5126,"count":64,"max":[-0.1474482907305404,0.010000000000000004,0.1385940214079435],"min":[-0.20568103339880418,0.005010000000000003,0.11625499999999997],"type":"VEC3"},{"bufferView":0,"byteOffset":17460,"componentType":5126,"count":64,"max":[-0.18520037186687308,0.010000000000000004,0.11874999999999998],"min":[-0.2110010035735782,0.005010000000000003,0.062167878557283808],"type":"VEC3"},{"bufferView":0,"byteOffset":18228,"componentType":5126,"count":65,"max":[0.20568103339880412,0.010000000000000004,0.1385940214079436],"min":[0.14744829073054015,0.005010000000000003,0.11625500000000011],"type":"VEC3"},{"bufferView":0,"byteOffset":19008,"componentType":5126,"count":55,"max":[0.2109751729731522,0.010000000000000006,0.11875000000000012],"min":[0.18520037186687308,0.005010000000000003,0.0621678785572839],"type":"VEC3"},{"bufferView":0,"byteOffset":19668,"componentType":5126,"count":32,"max":[-0.033501702357788248,0.010000000000000004,-0.08637148803271223],"min":[-0.05098980022862955,0.005010000000000003,-0.1937539759306683],"type":"VEC3"},{"bufferView":0,"byteOffset":20052,"componentType":5126,"count":32,"max":[-0.04625238690923928,0.010000000000000004,0.003130001967288081],"min":[-0.10165228635001938,0.005010000000000003,-0.08793897488792471],"type":"VEC3"},{"bufferView":0,"byteOffset":20436,"componentType":5126,"count":32,"max":[-0.09792609625361207,0.010000000000000004,0.06673149820726267],"min":[-0.18721865720109297,0.005010000000000003,-0.000188974887924388],"type":"VEC3"},{"bufferView":0,"byteOffset":20820,"componentType":5126,"count":32,"max":[0.18721865720109294,0.010000000000000004,0.06673149820726278],"min":[0.09792609625361189,0.005010000000000003,-0.000188974887924559],"type":"VEC3"},{"bufferView":0,"byteOffset":21204,"componentType":5126,"count":32,"max":[0.10165228635001919,0.010000000000000004,0.0031300019672879395],"min":[0.04625238690923931,0.005010000000000003,-0.08793897488792472],"type":"VEC3"},{"bufferView":0,"byteOffset":21588,"componentType":5126,"count":32,"max":[0.05098980022862955,0.010000000000000004,-0.08637148803271223],"min":[0.03350170235778828,0.005010000000000003,-0.1937539759306683],"type":"VEC3"},{"bufferView":0,"byteOffset":21972,"componentType":5126,"count":64,"max":[-1.7000000000000003e-17,0.010000000000000004,-0.19322005247719888],"min":[-0.0397703664705528,0.005010000000000003,-0.23750000000000003],"type":"VEC3"},{"bufferView":0,"byteOffset":22740,"componentType":5126,"count":64,"max":[0.03977036647055277,0.010000000000000004,-0.19322005247719885],"min":[-2.0461094043711523e-17,0.005010000000000003,-0.23750000000000003],"type":"VEC3"},{"bufferView":1,"byteOffset":0,"componentType":5126,"count":153,"type":"VEC3"},{"bufferView":1,"byteOffset":1836,"componentType":5126,"count":32,"type":"VEC3"},{"bufferView":1,"byteOffset":2220,"componentType":5126,"count":64,"type":"VEC3"},{"bufferView":1,"byteOffset":2988,"componentType":5126,"count":42,"type":"VEC3"},{"bufferView":1,"byteOffset":3492,"componentType":5126,"count":64,"type":"VEC3"},{"bufferView":1,"byteOffset":4260,"componentType":5126,"count":65,"type":"VEC3"},{"bufferView":1,"byteOffset":5040,"componentType":5126,"count":32,"type":"VEC3"},{"bufferView":1,"byteOffset":5424,"componentType":5126,"count":64,"type":"VEC3"},{"bufferView":1,"byteOffset":6192,"componentType":5126,"count":32,"type":"VEC3"},{"bufferView":1,"byteOffset":6576,"componentType":5126,"count":32,"type":"VEC3"},{"bufferView":1,"byteOffset":6960,"componentType":5126,"count":32,"type":"VEC3"},{"bufferView":1,"byteOffset":7344,"componentType":5126,"count":32,"type":"VEC3"},{"bufferView":1,"byteOffset":7728,"componentType":5126,"count":64,"type":"VEC3"},{"bufferView":1,"byteOffset":8496,"componentType":5126,"count":32,"type":"VEC3"},{"bufferView":1,"byteOffset":8880,"componentType":5126,"count":64,"type":"VEC3"},{"bufferView":1,"byteOffset":9648,"componentType":5126,"count":4,"type":"VEC3"},{"bufferView":1,"byteOffset":9696,"componentType":5126,"count":4,"type":"VEC3"},{"bufferView":1,"byteOffset":9744,"componentType":5126,"count":4,"type":"VEC3"},{"bufferView":1,"byteOffset":9792,"componentType":5126,"count":4,"type":"VEC3"},{"bufferView":1,"byteOffset":9840,"componentType":5126,"count":4,"type":"VEC3"},{"bufferView":1,"byteOffset":9888,"componentType":5126,"count":4,"type":"VEC3"},{"bufferView":1,"byteOffset":9936,"componentType":5126,"count":54,"type":"VEC3"},{"bufferView":1,"byteOffset":10584,"componentType":5126,"count":54,"type":"VEC3"},{"bufferView":1,"byteOffset":11232,"componentType":5126,"count":54,"type":"VEC3"},{"bufferView":1,"byteOffset":11880,"componentType":5126,"count":20,"type":"VEC3"},{"bufferView":1,"byteOffset":12120,"componentType":5126,"count":30,"type":"VEC3"},{"bufferView":1,"byteOffset":12480,"componentType":5126,"count":30,"type":"VEC3"},{"bufferView":1,"byteOffset":12840,"componentType":5126,"count":20,"type":"VEC3"},{"bufferView":1,"byteOffset":13080,"componentType":5126,"count":20,"type":"VEC3"},{"bufferView":1,"byteOffset":13320,"componentType":5126,"count":30,"type":"VEC3"},{"bufferView":1,"byteOffset":13680,"componentType":5126,"count":155,"type":"VEC3"},{"bufferView":1,"byteOffset":15540,"componentType":5126,"count":32,"type":"VEC3"},{"bufferView":1,"byteOffset":15924,"componentType":5126,"count":32,"type":"VEC3"},{"bufferView":1,"byteOffset":16308,"componentType":5126,"count":32,"type":"VEC3"},{"bufferView":1,"byteOffset":16692,"componentType":5126,"count":64,"type":"VEC3"},{"bufferView":1,"byteOffset":17460,"componentType":5126,"count":64,"type":"VEC3"},{"bufferView":1,"byteOffset":18228,"componentType":5126,"count":65,"type":"VEC3"},{"bufferView":1,"byteOffset":19008,"componentType":5126,"count":55,"type":"VEC3"},{"bufferView":1,"byteOffset":19668,"componentType":5126,"count":32,"type":"VEC3"},{"bufferView":1,"byteOffset":20052,"componentType":5126,"count":32,"type":"VEC3"},{"bufferView":1,"byteOffset":20436,"componentType":5126,"count":32,"type":"VEC3"},{"bufferView":1,"byteOffset":20820,"componentType":5126,"count":32,"type":"VEC3"},{"bufferView":1,"byteOffset":21204,"componentType":5126,"count":32,"type":"VEC3"},{"bufferView":1,"byteOffset":21588,"componentType":5126,"count":32,"type":"VEC3"},{"bufferView":1,"byteOffset":21972,"componentType":5126,"count":64,"type":"VEC3"},{"bufferView":1,"byteOffset":22740,"componentType":5126,"count":64,"type":"VEC3"},{"bufferView":2,"byteOffset":0,"componentType":5123,"count":477,"type":"SCALAR"},{"bufferView":2,"byteOffset":956,"componentType":5123,"count":126,"type":"SCALAR"},{"bufferView":2,"byteOffset":1208,"componentType":5123,"count":294,"type":"SCALAR"},{"bufferView":2,"byteOffset":1796,"componentType":5123,"count":165,"type":"SCALAR"},{"bufferView":2,"byteOffset":2128,"componentType":5123,"count":294,"type":"SCALAR"},{"bufferView":2,"byteOffset":2716,"componentType":5123,"count":297,"type":"SCALAR"},{"bufferView":2,"byteOffset":3312,"componentType":5123,"count":126,"type":"SCALAR"},{"bufferView":2,"byteOffset":3564,"componentType":5123,"count":294,"type":"SCALAR"},{"bufferView":2,"byteOffset":4152,"componentType":5123,"count":126,"type":"SCALAR"},{"bufferView":2,"byteOffset":4404,"componentType":5123,"count":126,"type":"SCALAR"},{"bufferView":2,"byteOffset":4656,"componentType":5123,"count":126,"type":"SCALAR"},{"bufferView":2,"byteOffset":4908,"componentType":5123,"count":126,"type":"SCALAR"},{"bufferView":2,"byteOffset":5160,"componentType":5123,"count":294,"type":"SCALAR"},{"bufferView":2,"byteOffset":5748,"componentType":5123,"count":126,"type":"SCALAR"},{"bufferView":2,"byteOffset":6000,"componentType":5123,"count":294,"type":"SCALAR"},{"bufferView":2,"byteOffset":6588,"componentType":5123,"count":6,"type":"SCALAR"},{"bufferView":2,"byteOffset":6600,"componentType":5123,"count":6,"type":"SCALAR"},{"bufferView":2,"byteOffset":6612,"componentType":5123,"count":6,"type":"SCALAR"},{"bufferView":2,"byteOffset":6624,"componentType":5123,"count":6,"type":"SCALAR"},{"bufferView":2,"byteOffset":6636,"componentType":5123,"count":6,"type":"SCALAR"},{"bufferView":2,"byteOffset":6648,"componentType":5123,"count":6,"type":"SCALAR"},{"bufferView":2,"byteOffset":6660,"componentType":5123,"count":156,"type":"SCALAR"},{"bufferView":2,"byteOffset":6972,"componentType":5123,"count":156,"type":"SCALAR"},{"bufferView":2,"byteOffset":7284,"componentType":5123,"count":156,"type":"SCALAR"},{"bufferView":2,"byteOffset":7596,"componentType":5123,"count":54,"type":"SCALAR"},{"bufferView":2,"byteOffset":7704,"componentType":5123,"count":84,"type":"SCALAR"},{"bufferView":2,"byteOffset":7872,"componentType":5123,"count":84,"type":"SCALAR"},{"bufferView":2,"byteOffset":8040,"componentType":5123,"count":54,"type":"SCALAR"},{"bufferView":2,"byteOffset":8148,"componentType":5123,"count":54,"type":"SCALAR"},{"bufferView":2,"byteOffset":8256,"componentType":5123,"count":84,"type":"SCALAR"},{"bufferView":2,"byteOffset":8424,"componentType":5123,"count":483,"type":"SCALAR"},{"bufferView":2,"byteOffset":9392,"componentType":5123,"count":126,"type":"SCALAR"},{"bufferView":2,"byteOffset":9644,"componentType":5123,"count":126,"type":"SCALAR"},{"bufferView":2,"byteOffset":9896,"componentType":5123,"count":126,"type":"SCALAR"},{"bufferView":2,"byteOffset":10148,"componentType":5123,"count":294,"type":"SCALAR"},{"bufferView":2,"byteOffset":10736,"componentType":5123,"count":294,"type":"SCALAR"},{"bufferView":2,"byteOffset":11324,"componentType":5123,"count":297,"type":"SCALAR"},{"bufferView":2,"byteOffset":11920,"componentType":5123,"count":231,"type":"SCALAR"},{"bufferView":2,"byteOffset":12384,"componentType":5123,"count":126,"type":"SCALAR"},{"bufferView":2,"byteOffset":12636,"componentType":5123,"count":126,"type":"SCALAR"},{"bufferView":2,"byteOffset":12888,"componentType":5123,"count":126,"type":"SCALAR"},{"bufferView":2,"byteOffset":13140,"componentType":5123,"count":126,"type":"SCALAR"},{"bufferView":2,"byteOffset":13392,"componentType":5123,"count":126,"type":"SCALAR"},{"bufferView":2,"byteOffset":13644,"componentType":5123,"count":126,"type":"SCALAR"},{"bufferView":2,"byteOffset":13896,"componentType":5123,"count":294,"type":"SCALAR"},{"bufferView":2,"byteOffset":14484,"componentType":5123,"count":294,"type":"SCALAR"}],"asset":{"generator":"Open CASCADE Technology 7.6 [dev.opencascade.org]","version":"2.0"},"bufferViews":[{"buffer":0,"byteLength":23508,"byteOffset":0,"byteStride":12,"target":34962},{"buffer":0,"byteLength":23508,"byteOffset":23508,"byteStride":12,"target":34962},{"buffer":0,"byteLength":15072,"byteOffset":47016,"target":34963}],"buffers":[{"byteLength":62088,"uri":"Page_017_Exercise2D-09_byHannu-Body.bin"}],"materials":[{"name":"mat_0","pbrMetallicRoughness":{"baseColorFactor":[0.6038273572921753,0.6038273572921753,0.6038273572921753,1.0]},"doubleSided":true}],"meshes":[{"name":"Body","primitives":[{"attributes":{"NORMAL":46,"POSITION":0},"indices":92,"material":0,"mode":4},{"attributes":{"NORMAL":47,"POSITION":1},"indices":93,"material":0,"mode":4},{"attributes":{"NORMAL":48,"POSITION":2},"indices":94,"material":0,"mode":4},{"attributes":{"NORMAL":49,"POSITION":3},"indices":95,"material":0,"mode":4},{"attributes":{"NORMAL":50,"POSITION":4},"indices":96,"material":0,"mode":4},{"attributes":{"NORMAL":51,"POSITION":5},"indices":97,"material":0,"mode":4},{"attributes":{"NORMAL":52,"POSITION":6},"indices":98,"material":0,"mode":4},{"attributes":{"NORMAL":53,"POSITION":7},"indices":99,"material":0,"mode":4},{"attributes":{"NORMAL":54,"POSITION":8},"indices":100,"material":0,"mode":4},{"attributes":{"NORMAL":55,"POSITION":9},"indices":101,"material":0,"mode":4},{"attributes":{"NORMAL":56,"POSITION":10},"indices":102,"material":0,"mode":4},{"attributes":{"NORMAL":57,"POSITION":11},"indices":103,"material":0,"mode":4},{"attributes":{"NORMAL":58,"POSITION":12},"indices":104,"material":0,"mode":4},{"attributes":{"NORMAL":59,"POSITION":13},"indices":105,"material":0,"mode":4},{"attributes":{"NORMAL":60,"POSITION":14},"indices":106,"material":0,"mode":4},{"attributes":{"NORMAL":61,"POSITION":15},"indices":107,"material":0,"mode":4},{"attributes":{"NORMAL":62,"POSITION":16},"indices":108,"material":0,"mode":4},{"attributes":{"NORMAL":63,"POSITION":17},"indices":109,"material":0,"mode":4},{"attributes":{"NORMAL":64,"POSITION":18},"indices":110,"material":0,"mode":4},{"attributes":{"NORMAL":65,"POSITION":19},"indices":111,"material":0,"mode":4},{"attributes":{"NORMAL":66,"POSITION":20},"indices":112,"material":0,"mode":4},{"attributes":{"NORMAL":67,"POSITION":21},"indices":113,"material":0,"mode":4},{"attributes":{"NORMAL":68,"POSITION":22},"indices":114,"material":0,"mode":4},{"attributes":{"NORMAL":69,"POSITION":23},"indices":115,"material":0,"mode":4},{"attributes":{"NORMAL":70,"POSITION":24},"indices":116,"material":0,"mode":4},{"attributes":{"NORMAL":71,"POSITION":25},"indices":117,"material":0,"mode":4},{"attributes":{"NORMAL":72,"POSITION":26},"indices":118,"material":0,"mode":4},{"attributes":{"NORMAL":73,"POSITION":27},"indices":119,"material":0,"mode":4},{"attributes":{"NORMAL":74,"POSITION":28},"indices":120,"material":0,"mode":4},{"attributes":{"NORMAL":75,"POSITION":29},"indices":121,"material":0,"mode":4},{"attributes":{"NORMAL":76,"POSITION":30},"indices":122,"material":0,"mode":4},{"attributes":{"NORMAL":77,"POSITION":31},"indices":123,"material":0,"mode":4},{"attributes":{"NORMAL":78,"POSITION":32},"indices":124,"material":0,"mode":4},{"attributes":{"NORMAL":79,"POSITION":33},"indices":125,"material":0,"mode":4},{"attributes":{"NORMAL":80,"POSITION":34},"indices":126,"material":0,"mode":4},{"attributes":{"NORMAL":81,"POSITION":35},"indices":127,"material":0,"mode":4},{"attributes":{"NORMAL":82,"POSITION":36},"indices":128,"material":0,"mode":4},{"attributes":{"NORMAL":83,"POSITION":37},"indices":129,"material":0,"mode":4},{"attributes":{"NORMAL":84,"POSITION":38},"indices":130,"material":0,"mode":4},{"attributes":{"NORMAL":85,"POSITION":39},"indices":131,"material":0,"mode":4},{"attributes":{"NORMAL":86,"POSITION":40},"indices":132,"material":0,"mode":4},{"attributes":{"NORMAL":87,"POSITION":41},"indices":133,"material":0,"mode":4},{"attributes":{"NORMAL":88,"POSITION":42},"indices":134,"material":0,"mode":4},{"attributes":{"NORMAL":89,"POSITION":43},"indices":135,"material":0,"mode":4},{"attributes":{"NORMAL":90,"POSITION":44},"indices":136,"material":0,"mode":4},{"attributes":{"NORMAL":91,"POSITION":45},"indices":137,"material":0,"mode":4}]}],"nodes":[{"mesh":0,"name":"Body"}],"scene":0,"scenes":[{"nodes":[0]}]}