{"accessors":[{"bufferView":0,"byteOffset":0,"componentType":5126,"count":9,"max":[0.036000000000000007,-0.008999999999999915,-0.022499999999999969],"min":[-0.024,-0.03,-0.022499999999999997],"type":"VEC3"},{"bufferView":0,"byteOffset":108,"componentType":5126,"count":32,"max":[0.036000000000000007,-0.029999999999999958,0.022500000000000039],"min":[-0.024,-0.03,-0.022499999999999969],"type":"VEC3"},{"bufferView":0,"byteOffset":492,"componentType":5126,"count":12,"max":[0.036000000000000319,-0.008999999999999915,-0.022499999999999969],"min":[0.00738182395749157,-0.03,-0.022499999999999997],"type":"VEC3"},{"bufferView":0,"byteOffset":636,"componentType":5126,"count":32,"max":[0.023999999999999974,-0.008999999999999897,0.022500000000000007],"min":[-0.024,-0.009000000000000005,-0.022499999999999993],"type":"VEC3"},{"bufferView":0,"byteOffset":1020,"componentType":5126,"count":4,"max":[-0.024,-0.008999999999999989,0.022500000000000039],"min":[-0.024,-0.03,-0.022499999999999993],"type":"VEC3"},{"bufferView":0,"byteOffset":1068,"componentType":5126,"count":16,"max":[0.066,3.552713678800502e-18,-0.0044999999999999688],"min":[0.036000000000000007,-0.03,-0.0225],"type":"VEC3"},{"bufferView":0,"byteOffset":1260,"componentType":5126,"count":9,"max":[0.036000000000000007,-0.008999999999999897,0.022500000000000039],"min":[-0.024,-0.029999999999999958,0.022500000000000004],"type":"VEC3"},{"bufferView":0,"byteOffset":1368,"componentType":5126,"count":7,"max":[0.13236396103067894,-0.02999999999999997,0.004500000000000032],"min":[0.036000000000000007,-0.029999999999999986,-0.004499999999999972],"type":"VEC3"},{"bufferView":0,"byteOffset":1452,"componentType":5126,"count":16,"max":[0.066,3.197442310920451e-17,0.022500000000000039],"min":[0.036000000000000007,-0.02999999999999997,0.0045000000000000009],"type":"VEC3"},{"bufferView":0,"byteOffset":1644,"componentType":5126,"count":54,"max":[0.012,-0.020999999999999989,0.01191250648917666],"min":[-0.012,-0.03,-0.011912506489176642],"type":"VEC3"},{"bufferView":0,"byteOffset":2292,"componentType":5126,"count":30,"max":[0.066,0.030000000000000007,-0.022499999999999969],"min":[0.036000000000000007,-0.03,-0.022500000000000035],"type":"VEC3"},{"bufferView":0,"byteOffset":2652,"componentType":5126,"count":24,"max":[0.051000000000000007,2.1316282072803007e-17,0.022500000000000018],"min":[0.02399999999999996,-0.015000000000000015,-0.0225],"type":"VEC3"},{"bufferView":0,"byteOffset":2940,"componentType":5126,"count":12,"max":[0.036000000000000319,-0.008999999999999897,0.022500000000000039],"min":[0.0073818239574915838,-0.029999999999999958,0.022500000000000004],"type":"VEC3"},{"bufferView":0,"byteOffset":3084,"componentType":5126,"count":54,"max":[0.006,-0.008999999999999998,0.005956253244588333],"min":[-0.006,-0.021,-0.005956253244588321],"type":"VEC3"},{"bufferView":0,"byteOffset":3732,"componentType":5126,"count":16,"max":[0.066,0.03000000000000002,-0.0045000000000000009],"min":[0.036000000000000007,-1.7763568394002506e-17,-0.022500000000000035],"type":"VEC3"},{"bufferView":0,"byteOffset":3924,"componentType":5126,"count":25,"max":[0.09600000000000035,0.03000000000000002,-0.0044999999999999688],"min":[0.036000000000000007,-0.029999999999999986,-0.004500000000000032],"type":"VEC3"},{"bufferView":0,"byteOffset":4224,"componentType":5126,"count":25,"max":[0.096,0.03000000000000003,0.004500000000000032],"min":[0.036000000000000007,-0.02999999999999997,0.0044999999999999688],"type":"VEC3"},{"bufferView":0,"byteOffset":4524,"componentType":5126,"count":12,"max":[0.1297279220613579,0.03000000000000003,0.004500000000000032],"min":[0.096,-0.02999999999999997,0.0044999999999999688],"type":"VEC3"},{"bufferView":0,"byteOffset":4668,"componentType":5126,"count":43,"max":[0.17514392129246507,0.030000000000000028,0.004500000000000032],"min":[0.1297279220613579,-0.02999999999999997,-0.0409159992311072],"type":"VEC3"},{"bufferView":0,"byteOffset":5184,"componentType":5126,"count":4,"max":[0.16771315449535918,-0.014311818371996729,0.0018639610306789756],"min":[0.126,-0.029999999999999979,-0.03984919346468022],"type":"VEC3"},{"bufferView":0,"byteOffset":5232,"componentType":5126,"count":12,"max":[0.126,0.030000000000000024,-0.0044999999999999688],"min":[0.096,-0.029999999999999986,-0.004500000000000032],"type":"VEC3"},{"bufferView":0,"byteOffset":5376,"componentType":5126,"count":16,"max":[0.066,0.030000000000000045,0.022500000000000007],"min":[0.036000000000000007,1.4210854715202005e-17,0.0044999999999999688],"type":"VEC3"},{"bufferView":0,"byteOffset":5568,"componentType":5126,"count":30,"max":[0.066,0.030000000000000045,0.022500000000000039],"min":[0.036000000000000007,-0.029999999999999958,0.022499999999999966],"type":"VEC3"},{"bufferView":0,"byteOffset":5928,"componentType":5126,"count":52,"max":[0.012,-0.020999999999999989,0.011912506489176658],"min":[-0.012,-0.021,-0.011912506489176642],"type":"VEC3"},{"bufferView":0,"byteOffset":6552,"componentType":5126,"count":24,"max":[0.051000000000000007,0.015000000000000026,0.0225],"min":[0.023999999999999953,-1.4210854715202005e-17,-0.022500000000000014],"type":"VEC3"},{"bufferView":0,"byteOffset":6840,"componentType":5126,"count":12,"max":[0.036000000000000319,0.030000000000000007,-0.0225],"min":[0.0073818239574915769,0.008999999999999899,-0.022500000000000035],"type":"VEC3"},{"bufferView":0,"byteOffset":6984,"componentType":5126,"count":32,"max":[0.036000000000000007,0.030000000000000045,0.022499999999999966],"min":[-0.024,0.03,-0.022500000000000035],"type":"VEC3"},{"bufferView":0,"byteOffset":7368,"componentType":5126,"count":30,"max":[0.105,2.1316282072803007e-17,0.0045000000000000078],"min":[0.08700000000000001,-0.008999999999999989,-0.0045000000000000009],"type":"VEC3"},{"bufferView":0,"byteOffset":7728,"componentType":5126,"count":4,"max":[0.08700000000000001,0.03000000000000003,0.0045000000000000009],"min":[0.08700000000000001,1.4210854715202005e-17,-0.004500000000000032],"type":"VEC3"},{"bufferView":0,"byteOffset":7776,"componentType":5126,"count":4,"max":[0.08700000000000001,0.03000000000000003,0.0044999999999999688],"min":[0.036000000000000007,0.03000000000000002,-0.004500000000000032],"type":"VEC3"},{"bufferView":0,"byteOffset":7824,"componentType":5126,"count":4,"max":[0.105,0.03000000000000003,0.0045000000000000009],"min":[0.105,1.0658141036401503e-17,-0.004500000000000032],"type":"VEC3"},{"bufferView":0,"byteOffset":7872,"componentType":5126,"count":5,"max":[0.13236396103067894,0.03000000000000003,0.0044999999999999688],"min":[0.105,0.03000000000000002,-0.004500000000000032],"type":"VEC3"},{"bufferView":0,"byteOffset":7932,"componentType":5126,"count":14,"max":[0.17514392129246507,2.1790970805568579e-11,-0.0334852324340013],"min":[0.16134919346468025,-0.014311818371996736,-0.04727996026178612],"type":"VEC3"},{"bufferView":0,"byteOffset":8100,"componentType":5126,"count":4,"max":[0.16771315449535918,0.030000000000000028,0.0018639610306789082],"min":[0.126,0.014311818371996696,-0.03984919346468024],"type":"VEC3"},{"bufferView":0,"byteOffset":8148,"componentType":5126,"count":14,"max":[0.17514392129246507,0.014311818371996702,-0.03348523243400132],"min":[0.16134919346468025,-2.1316282072803007e-17,-0.04727996026178612],"type":"VEC3"},{"bufferView":0,"byteOffset":8316,"componentType":5126,"count":54,"max":[0.16984062043356597,0.0074453165557354168,-0.025006096654409894],"min":[0.15287005768508889,-0.0074453165557354,-0.04197665940288702],"type":"VEC3"},{"bufferView":0,"byteOffset":8964,"componentType":5126,"count":41,"max":[0.16877996026178614,0.030000000000000024,-0.004499999999999972],"min":[0.126,-0.029999999999999979,-0.04727996026178612],"type":"VEC3"},{"bufferView":0,"byteOffset":9456,"componentType":5126,"count":12,"max":[0.036000000000000319,0.030000000000000045,0.022500000000000007],"min":[0.007381823957491563,0.008999999999999915,0.022499999999999966],"type":"VEC3"},{"bufferView":0,"byteOffset":9600,"componentType":5126,"count":32,"max":[0.02399999999999996,0.00900000000000001,0.022499999999999997],"min":[-0.024,0.008999999999999899,-0.022500000000000007],"type":"VEC3"},{"bufferView":0,"byteOffset":9984,"componentType":5126,"count":9,"max":[0.036000000000000007,0.030000000000000007,-0.0225],"min":[-0.024,0.008999999999999899,-0.022500000000000035],"type":"VEC3"},{"bufferView":0,"byteOffset":10092,"componentType":5126,"count":4,"max":[-0.024,0.030000000000000045,0.022499999999999997],"min":[-0.024,0.008999999999999994,-0.022500000000000035],"type":"VEC3"},{"bufferView":0,"byteOffset":10140,"componentType":5126,"count":9,"max":[0.036000000000000007,0.030000000000000045,0.022500000000000007],"min":[-0.024,0.008999999999999915,0.022499999999999966],"type":"VEC3"},{"bufferView":0,"byteOffset":10248,"componentType":5126,"count":54,"max":[0.012,0.03000000000000001,0.01191250648917665],"min":[-0.012,0.021000000000000006,-0.011912506489176654],"type":"VEC3"},{"bufferView":0,"byteOffset":10896,"componentType":5126,"count":54,"max":[0.006,0.021000000000000006,0.005956253244588323],"min":[-0.006,0.008999999999999998,-0.005956253244588328],"type":"VEC3"},{"bufferView":0,"byteOffset":11544,"componentType":5126,"count":52,"max":[0.012,0.02100000000000001,0.01191250648917665],"min":[-0.012,0.021,-0.011912506489176652],"type":"VEC3"},{"bufferView":1,"byteOffset":0,"componentType":5126,"count":9,"type":"VEC3"},{"bufferView":1,"byteOffset":108,"componentType":5126,"count":32,"type":"VEC3"},{"bufferView":1,"byteOffset":492,"componentType":5126,"count":12,"type":"VEC3"},{"bufferView":1,"byteOffset":636,"componentType":5126,"count":32,"type":"VEC3"},{"bufferView":1,"byteOffset":1020,"componentType":5126,"count":4,"type":"VEC3"},{"bufferView":1,"byteOffset":1068,"componentType":5126,"count":16,"type":"VEC3"},{"bufferView":1,"byteOffset":1260,"componentType":5126,"count":9,"type":"VEC3"},{"bufferView":1,"byteOffset":1368,"componentType":5126,"count":7,"type":"VEC3"},{"bufferView":1,"byteOffset":1452,"componentType":5126,"count":16,"type":"VEC3"},{"bufferView":1,"byteOffset":1644,"componentType":5126,"count":54,"type":"VEC3"},{"bufferView":1,"byteOffset":2292,"componentType":5126,"count":30,"type":"VEC3"},{"bufferView":1,"byteOffset":2652,"componentType":5126,"count":24,"type":"VEC3"},{"bufferView":1,"byteOffset":2940,"componentType":5126,"count":12,"type":"VEC3"},{"bufferView":1,"byteOffset":3084,"componentType":5126,"count":54,"type":"VEC3"},{"bufferView":1,"byteOffset":3732,"componentType":5126,"count":16,"type":"VEC3"},{"bufferView":1,"byteOffset":3924,"componentType":5126,"count":25,"type":"VEC3"},{"bufferView":1,"byteOffset":4224,"componentType":5126,"count":25,"type":"VEC3"},{"bufferView":1,"byteOffset":4524,"componentType":5126,"count":12,"type":"VEC3"},{"bufferView":1,"byteOffset":4668,"componentType":5126,"count":43,"type":"VEC3"},{"bufferView":1,"byteOffset":5184,"componentType":5126,"count":4,"type":"VEC3"},{"bufferView":1,"byteOffset":5232,"componentType":5126,"count":12,"type":"VEC3"},{"bufferView":1,"byteOffset":5376,"componentType":5126,"count":16,"type":"VEC3"},{"bufferView":1,"byteOffset":5568,"componentType":5126,"count":30,"type":"VEC3"},{"bufferView":1,"byteOffset":5928,"componentType":5126,"count":52,"type":"VEC3"},{"bufferView":1,"byteOffset":6552,"componentType":5126,"count":24,"type":"VEC3"},{"bufferView":1,"byteOffset":6840,"componentType":5126,"count":12,"type":"VEC3"},{"bufferView":1,"byteOffset":6984,"componentType":5126,"count":32,"type":"VEC3"},{"bufferView":1,"byteOffset":7368,"componentType":5126,"count":30,"type":"VEC3"},{"bufferView":1,"byteOffset":7728,"componentType":5126,"count":4,"type":"VEC3"},{"bufferView":1,"byteOffset":7776,"componentType":5126,"count":4,"type":"VEC3"},{"bufferView":1,"byteOffset":7824,"componentType":5126,"count":4,"type":"VEC3"},{"bufferView":1,"byteOffset":7872,"componentType":5126,"count":5,"type":"VEC3"},{"bufferView":1,"byteOffset":7932,"componentType":5126,"count":14,"type":"VEC3"},{"bufferView":1,"byteOffset":8100,"componentType":5126,"count":4,"type":"VEC3"},{"bufferView":1,"byteOffset":8148,"componentType":5126,"count":14,"type":"VEC3"},{"bufferView":1,"byteOffset":8316,"componentType":5126,"count":54,"type":"VEC3"},{"bufferView":1,"byteOffset":8964,"componentType":5126,"count":41,"type":"VEC3"},{"bufferView":1,"byteOffset":9456,"componentType":5126,"count":12,"type":"VEC3"},{"bufferView":1,"byteOffset":9600,"componentType":5126,"count":32,"type":"VEC3"},{"bufferView":1,"byteOffset":9984,"componentType":5126,"count":9,"type":"VEC3"},{"bufferView":1,"byteOffset":10092,"componentType":5126,"count":4,"type":"VEC3"},{"bufferView":1,"byteOffset":10140,"componentType":5126,"count":9,"type":"VEC3"},{"bufferView":1,"byteOffset":10248,"componentType":5126,"count":54,"type":"VEC3"},{"bufferView":1,"byteOffset":10896,"componentType":5126,"count":54,"type":"VEC3"},{"bufferView":1,"byteOffset":11544,"componentType":5126,"count":52,"type":"VEC3"},{"bufferView":2,"byteOffset":0,"componentType":5123,"count":21,"type":"SCALAR"},{"bufferView":2,"byteOffset":44,"componentType":5123,"count":96,"type":"SCALAR"},{"bufferView":2,"byteOffset":236,"componentType":5123,"count":30,"type":"SCALAR"},{"bufferView":2,"byteOffset":296,"componentType":5123,"count":96,"type":"SCALAR"},{"bufferView":2,"byteOffset":488,"componentType":5123,"count":6,"type":"SCALAR"},{"bufferView":2,"byteOffset":500,"componentType":5123,"count":42,"type":"SCALAR"},{"bufferView":2,"byteOffset":584,"componentType":5123,"count":21,"type":"SCALAR"},{"bufferView":2,"byteOffset":628,"componentType":5123,"count":15,"type":"SCALAR"},{"bufferView":2,"byteOffset":660,"componentType":5123,"count":42,"type":"SCALAR"},{"bufferView":2,"byteOffset":744,"componentType":5123,"count":156,"type":"SCALAR"},{"bufferView":2,"byteOffset":1056,"componentType":5123,"count":84,"type":"SCALAR"},{"bufferView":2,"byteOffset":1224,"componentType":5123,"count":66,"type":"SCALAR"},{"bufferView":2,"byteOffset":1356,"componentType":5123,"count":30,"type":"SCALAR"},{"bufferView":2,"byteOffset":1416,"componentType":5123,"count":156,"type":"SCALAR"},{"bufferView":2,"byteOffset":1728,"componentType":5123,"count":42,"type":"SCALAR"},{"bufferView":2,"byteOffset":1812,"componentType":5123,"count":69,"type":"SCALAR"},{"bufferView":2,"byteOffset":1952,"componentType":5123,"count":69,"type":"SCALAR"},{"bufferView":2,"byteOffset":2092,"componentType":5123,"count":30,"type":"SCALAR"},{"bufferView":2,"byteOffset":2152,"componentType":5123,"count":129,"type":"SCALAR"},{"bufferView":2,"byteOffset":2412,"componentType":5123,"count":6,"type":"SCALAR"},{"bufferView":2,"byteOffset":2424,"componentType":5123,"count":30,"type":"SCALAR"},{"bufferView":2,"byteOffset":2484,"componentType":5123,"count":42,"type":"SCALAR"},{"bufferView":2,"byteOffset":2568,"componentType":5123,"count":84,"type":"SCALAR"},{"bufferView":2,"byteOffset":2736,"componentType":5123,"count":156,"type":"SCALAR"},{"bufferView":2,"byteOffset":3048,"componentType":5123,"count":66,"type":"SCALAR"},{"bufferView":2,"byteOffset":3180,"componentType":5123,"count":30,"type":"SCALAR"},{"bufferView":2,"byteOffset":3240,"componentType":5123,"count":96,"type":"SCALAR"},{"bufferView":2,"byteOffset":3432,"componentType":5123,"count":84,"type":"SCALAR"},{"bufferView":2,"byteOffset":3600,"componentType":5123,"count":6,"type":"SCALAR"},{"bufferView":2,"byteOffset":3612,"componentType":5123,"count":6,"type":"SCALAR"},{"bufferView":2,"byteOffset":3624,"componentType":5123,"count":6,"type":"SCALAR"},{"bufferView":2,"byteOffset":3636,"componentType":5123,"count":9,"type":"SCALAR"},{"bufferView":2,"byteOffset":3656,"componentType":5123,"count":36,"type":"SCALAR"},{"bufferView":2,"byteOffset":3728,"componentType":5123,"count":6,"type":"SCALAR"},{"bufferView":2,"byteOffset":3740,"componentType":5123,"count":36,"type":"SCALAR"},{"bufferView":2,"byteOffset":3812,"componentType":5123,"count":156,"type":"SCALAR"},{"bufferView":2,"byteOffset":4124,"componentType":5123,"count":123,"type":"SCALAR"},{"bufferView":2,"byteOffset":4372,"componentType":5123,"count":30,"type":"SCALAR"},{"bufferView":2,"byteOffset":4432,"componentType":5123,"count":96,"type":"SCALAR"},{"bufferView":2,"byteOffset":4624,"componentType":5123,"count":21,"type":"SCALAR"},{"bufferView":2,"byteOffset":4668,"componentType":5123,"count":6,"type":"SCALAR"},{"bufferView":2,"byteOffset":4680,"componentType":5123,"count":21,"type":"SCALAR"},{"bufferView":2,"byteOffset":4724,"componentType":5123,"count":156,"type":"SCALAR"},{"bufferView":2,"byteOffset":5036,"componentType":5123,"count":156,"type":"SCALAR"},{"bufferView":2,"byteOffset":5348,"componentType":5123,"count":156,"type":"SCALAR"}],"asset":{"generator":"Open CASCADE Technology 7.6 [dev.opencascade.org]","version":"2.0"},"bufferViews":[{"buffer":0,"byteLength":12168,"byteOffset":0,"byteStride":12,"target":34962},{"buffer":0,"byteLength":12168,"byteOffset":12168,"byteStride":12,"target":34962},{"buffer":0,"byteLength":5660,"byteOffset":24336,"target":34963}],"buffers":[{"byteLength":29996,"uri":"Page_073_Exercise3D-14_byHannu-Body.bin"}],"materials":[{"name":"mat_0","pbrMetallicRoughness":{"baseColorFactor":[0.6038273572921753,0.6038273572921753,0.6038273572921753,1.0]},"doubleSided":true}],"meshes":[{"name":"Body","primitives":[{"attributes":{"NORMAL":45,"POSITION":0},"indices":90,"material":0,"mode":4},{"attributes":{"NORMAL":46,"POSITION":1},"indices":91,"material":0,"mode":4},{"attributes":{"NORMAL":47,"POSITION":2},"indices":92,"material":0,"mode":4},{"attributes":{"NORMAL":48,"POSITION":3},"indices":93,"material":0,"mode":4},{"attributes":{"NORMAL":49,"POSITION":4},"indices":94,"material":0,"mode":4},{"attributes":{"NORMAL":50,"POSITION":5},"indices":95,"material":0,"mode":4},{"attributes":{"NORMAL":51,"POSITION":6},"indices":96,"material":0,"mode":4},{"attributes":{"NORMAL":52,"POSITION":7},"indices":97,"material":0,"mode":4},{"attributes":{"NORMAL":53,"POSITION":8},"indices":98,"material":0,"mode":4},{"attributes":{"NORMAL":54,"POSITION":9},"indices":99,"material":0,"mode":4},{"attributes":{"NORMAL":55,"POSITION":10},"indices":100,"material":0,"mode":4},{"attributes":{"NORMAL":56,"POSITION":11},"indices":101,"material":0,"mode":4},{"attributes":{"NORMAL":57,"POSITION":12},"indices":102,"material":0,"mode":4},{"attributes":{"NORMAL":58,"POSITION":13},"indices":103,"material":0,"mode":4},{"attributes":{"NORMAL":59,"POSITION":14},"indices":104,"material":0,"mode":4},{"attributes":{"NORMAL":60,"POSITION":15},"indices":105,"material":0,"mode":4},{"attributes":{"NORMAL":61,"POSITION":16},"indices":106,"material":0,"mode":4},{"attributes":{"NORMAL":62,"POSITION":17},"indices":107,"material":0,"mode":4},{"attributes":{"NORMAL":63,"POSITION":18},"indices":108,"material":0,"mode":4},{"attributes":{"NORMAL":64,"POSITION":19},"indices":109,"material":0,"mode":4},{"attributes":{"NORMAL":65,"POSITION":20},"indices":110,"material":0,"mode":4},{"attributes":{"NORMAL":66,"POSITION":21},"indices":111,"material":0,"mode":4},{"attributes":{"NORMAL":67,"POSITION":22},"indices":112,"material":0,"mode":4},{"attributes":{"NORMAL":68,"POSITION":23},"indices":113,"material":0,"mode":4},{"attributes":{"NORMAL":69,"POSITION":24},"indices":114,"material":0,"mode":4},{"attributes":{"NORMAL":70,"POSITION":25},"indices":115,"material":0,"mode":4},{"attributes":{"NORMAL":71,"POSITION":26},"indices":116,"material":0,"mode":4},{"attributes":{"NORMAL":72,"POSITION":27},"indices":117,"material":0,"mode":4},{"attributes":{"NORMAL":73,"POSITION":28},"indices":118,"material":0,"mode":4},{"attributes":{"NORMAL":74,"POSITION":29},"indices":119,"material":0,"mode":4},{"attributes":{"NORMAL":75,"POSITION":30},"indices":120,"material":0,"mode":4},{"attributes":{"NORMAL":76,"POSITION":31},"indices":121,"material":0,"mode":4},{"attributes":{"NORMAL":77,"POSITION":32},"indices":122,"material":0,"mode":4},{"attributes":{"NORMAL":78,"POSITION":33},"indices":123,"material":0,"mode":4},{"attributes":{"NORMAL":79,"POSITION":34},"indices":124,"material":0,"mode":4},{"attributes":{"NORMAL":80,"POSITION":35},"indices":125,"material":0,"mode":4},{"attributes":{"NORMAL":81,"POSITION":36},"indices":126,"material":0,"mode":4},{"attributes":{"NORMAL":82,"POSITION":37},"indices":127,"material":0,"mode":4},{"attributes":{"NORMAL":83,"POSITION":38},"indices":128,"material":0,"mode":4},{"attributes":{"NORMAL":84,"POSITION":39},"indices":129,"material":0,"mode":4},{"attributes":{"NORMAL":85,"POSITION":40},"indices":130,"material":0,"mode":4},{"attributes":{"NORMAL":86,"POSITION":41},"indices":131,"material":0,"mode":4},{"attributes":{"NORMAL":87,"POSITION":42},"indices":132,"material":0,"mode":4},{"attributes":{"NORMAL":88,"POSITION":43},"indices":133,"material":0,"mode":4},{"attributes":{"NORMAL":89,"POSITION":44},"indices":134,"material":0,"mode":4}]}],"nodes":[{"mesh":0,"name":"Body"}],"scene":0,"scenes":[{"nodes":[0]}]}