{"accessors":[{"bufferView":0,"byteOffset":0,"componentType":5126,"count":54,"max":[0.04,1.0,0.03970835496392218],"min":[-0.04,0.0,-0.039708354963922169],"type":"VEC3"},{"bufferView":0,"byteOffset":648,"componentType":5126,"count":26,"max":[0.04,0.0,0.03970835496392218],"min":[-0.04,0.0,-0.039708354963922169],"type":"VEC3"},{"bufferView":0,"byteOffset":960,"componentType":5126,"count":26,"max":[0.04,1.0,0.03970835496392218],"min":[-0.04,1.0,-0.039708354963922169],"type":"VEC3"},{"bufferView":1,"byteOffset":0,"componentType":5126,"count":54,"type":"VEC3"},{"bufferView":1,"byteOffset":648,"componentType":5126,"count":26,"type":"VEC3"},{"bufferView":1,"byteOffset":960,"componentType":5126,"count":26,"type":"VEC3"},{"bufferView":2,"byteOffset":0,"componentType":5123,"count":156,"type":"SCALAR"},{"bufferView":2,"byteOffset":312,"componentType":5123,"count":72,"type":"SCALAR"},{"bufferView":2,"byteOffset":456,"componentType":5123,"count":72,"type":"SCALAR"}],"asset":{"generator":"Open CASCADE Technology 7.6 [dev.opencascade.org]","version":"2.0"},"bufferViews":[{"buffer":0,"byteLength":1272,"byteOffset":0,"byteStride":12,"target":34962},{"buffer":0,"byteLength":1272,"byteOffset":1272,"byteStride":12,"target":34962},{"buffer":0,"byteLength":600,"byteOffset":2544,"target":34963}],"buffers":[{"byteLength":3144,"uri":"test.bin"}],"materials":[{"name":"mat_0","pbrMetallicRoughness":{"baseColorFactor":[0.6038273572921753,0.6038273572921753,0.6038273572921753,1.0]},"doubleSided":true}],"meshes":[{"name":"Body","primitives":[{"attributes":{"NORMAL":3,"POSITION":0},"indices":6,"material":0,"mode":4},{"attributes":{"NORMAL":4,"POSITION":1},"indices":7,"material":0,"mode":4},{"attributes":{"NORMAL":5,"POSITION":2},"indices":8,"material":0,"mode":4}]}],"nodes":[{"mesh":0,"name":"Body"}],"scene":0,"scenes":[{"nodes":[0]}]}