{"accessors":[{"bufferView":0,"byteOffset":0,"componentType":5126,"count":58,"max":[0.008570000000000007,0.08714500011320477,0.008570000000000003],"min":[-0.008570000000000005,-8.881784197001255e-19,-0.00857000000000001],"type":"VEC3"},{"bufferView":0,"byteOffset":696,"componentType":5126,"count":54,"max":[0.008570000000000007,0.08714500011320477,0.008570000000000003],"min":[-0.008570000000000002,0.08714500011320475,-0.00857000000000001],"type":"VEC3"},{"bufferView":0,"byteOffset":1344,"componentType":5126,"count":54,"max":[0.008570000000000005,8.881784197001255e-19,0.008570000000000003],"min":[-0.008570000000000005,-8.881784197001255e-19,-0.008570000000000003],"type":"VEC3"},{"bufferView":0,"byteOffset":1992,"componentType":5126,"count":54,"max":[0.006260000000000005,0.08714500011320477,0.006214357551853825],"min":[-0.0062600000000000029,-8.881784197001255e-19,-0.006214357551853825],"type":"VEC3"},{"bufferView":0,"byteOffset":2640,"componentType":5126,"count":58,"max":[0.008569999999999993,0.08182028473574175,0.008569999999999993],"min":[-0.008570000000000009,0.0,-0.008570000000000009],"type":"VEC3"},{"bufferView":0,"byteOffset":3336,"componentType":5126,"count":54,"max":[0.008569999999999993,0.08182028473574175,0.008569999999999993],"min":[-0.008570000000000009,0.08182028473574171,-0.008570000000000009],"type":"VEC3"},{"bufferView":0,"byteOffset":3984,"componentType":5126,"count":54,"max":[0.008569999999999993,1.0658141036401503e-17,0.008569999999999993],"min":[-0.008570000000000009,-3.552713678800501e-18,-0.008570000000000009],"type":"VEC3"},{"bufferView":0,"byteOffset":4632,"componentType":5126,"count":54,"max":[0.006259999999999991,0.08182028473574174,0.006214357551853823],"min":[-0.00626000000000002,-3.552713678800501e-18,-0.006214357551853823],"type":"VEC3"},{"bufferView":0,"byteOffset":5280,"componentType":5126,"count":54,"max":[0.008569999999999993,0.12324164023714836,0.008507515051020327],"min":[-0.008570000000000022,-1.7763568394002506e-18,-0.008507515051020341],"type":"VEC3"},{"bufferView":0,"byteOffset":5928,"componentType":5126,"count":52,"max":[0.008569999999999993,0.12324164023714836,0.008507515051020327],"min":[-0.008570000000000022,0.12324164023714833,-0.008507515051020341],"type":"VEC3"},{"bufferView":0,"byteOffset":6552,"componentType":5126,"count":52,"max":[0.008569999999999993,9.769962616701377e-18,0.00850751505102032],"min":[-0.008570000000000022,-8.881784197001253e-18,-0.008507515051020338],"type":"VEC3"},{"bufferView":0,"byteOffset":7176,"componentType":5126,"count":54,"max":[0.006259999999999991,0.12324164023714836,0.006214357551853837],"min":[-0.00626000000000002,-8.881784197001253e-18,-0.006214357551853823],"type":"VEC3"},{"bufferView":0,"byteOffset":7824,"componentType":5126,"count":56,"max":[0.008569999999999965,0.08182028465569388,0.008555500916384787],"min":[-0.008512052725848464,-2.1316282072803007e-17,-0.008555500916384787],"type":"VEC3"},{"bufferView":0,"byteOffset":8496,"componentType":5126,"count":53,"max":[0.008569999999999965,0.08182028465569388,0.008555500916384787],"min":[-0.008512052725848464,0.08182028465569386,-0.008555500916384787],"type":"VEC3"},{"bufferView":0,"byteOffset":9132,"componentType":5126,"count":53,"max":[0.008569999999999965,1.4210854715202005e-17,0.008555500916384759],"min":[-0.008512052725848464,-2.1316282072803007e-17,-0.008555500916384773],"type":"VEC3"},{"bufferView":0,"byteOffset":9768,"componentType":5126,"count":54,"max":[0.006259999999999991,0.08182028465569388,0.006214357551853823],"min":[-0.00626000000000002,-2.1316282072803007e-17,-0.006214357551853837],"type":"VEC3"},{"bufferView":0,"byteOffset":10416,"componentType":5126,"count":54,"max":[0.008570000000000009,0.1360966408930035,0.008507515051020334],"min":[-0.008570000000000009,-1.4210854715202005e-17,-0.008507515051020334],"type":"VEC3"},{"bufferView":0,"byteOffset":11064,"componentType":5126,"count":52,"max":[0.008570000000000009,0.1360966408930035,0.008507515051020334],"min":[-0.008570000000000009,0.1360966408930035,-0.008507515051020334],"type":"VEC3"},{"bufferView":0,"byteOffset":11688,"componentType":5126,"count":52,"max":[0.008570000000000009,1.4210854715202005e-17,0.008507515051020334],"min":[-0.008569999999999993,-1.4210854715202005e-17,-0.008507515051020334],"type":"VEC3"},{"bufferView":0,"byteOffset":12312,"componentType":5126,"count":54,"max":[0.006260000000000005,0.1360966408930035,0.006214357551853823],"min":[-0.006260000000000005,0.0,-0.006214357551853823],"type":"VEC3"},{"bufferView":0,"byteOffset":12960,"componentType":5126,"count":774,"max":[0.012854999905662699,0.00854603654331982,0.008570000056602368],"min":[-0.00857000005660238,-0.008546036543185542,-0.012854999924530163],"type":"VEC3"},{"bufferView":0,"byteOffset":22248,"componentType":5126,"count":78,"max":[0.008569999943397617,0.008546036541842708,-0.012854999849060335],"min":[-0.00857000005660238,-0.00854603654184272,-0.012854999924530163],"type":"VEC3"},{"bufferView":0,"byteOffset":23184,"componentType":5126,"count":629,"max":[0.012854999914358904,0.0062599999999999969,0.006260000056602365],"min":[-0.006260000056602382,-0.006260000000000003,-0.012854999914358914],"type":"VEC3"},{"bufferView":0,"byteOffset":30732,"componentType":5126,"count":78,"max":[0.012854999914358904,0.00854603654331982,0.008570000056602368],"min":[0.012854999859231576,-0.008546036543185542,-0.008569999943397633],"type":"VEC3"},{"bufferView":0,"byteOffset":31668,"componentType":5126,"count":539,"max":[0.008198992556109859,0.008570000000000005,0.00995532794702632],"min":[-0.009955327947026348,-0.008570000000000003,-0.0081989925561099],"type":"VEC3"},{"bufferView":0,"byteOffset":38136,"componentType":5126,"count":88,"max":[0.005879967254657636,0.008569999999999998,-0.0016397985602347376],"min":[-0.009955327947026348,-0.008570000000000003,-0.0081989925561099],"type":"VEC3"},{"bufferView":0,"byteOffset":39192,"componentType":5126,"count":410,"max":[0.007314993832045019,0.006260000000000007,0.007821166224979066],"min":[-0.007821166224979089,-0.006260000000000003,-0.007314993832045019],"type":"VEC3"},{"bufferView":0,"byteOffset":44112,"componentType":5126,"count":88,"max":[0.008198992556109859,0.00857,0.00995532794702632],"min":[0.0016397985602347307,-0.00856999999999999,-0.005879967254657686],"type":"VEC3"},{"bufferView":0,"byteOffset":45168,"componentType":5126,"count":731,"max":[0.012855000000000016,0.008546036541842767,0.008569999999999993],"min":[-0.008570000000000007,-0.008546036541842739,-0.01285500000000002],"type":"VEC3"},{"bufferView":0,"byteOffset":53940,"componentType":5126,"count":78,"max":[0.00856999999999999,0.008546036541842739,-0.012854999999999962],"min":[-0.008570000000000007,-0.008546036541842712,-0.01285500000000002],"type":"VEC3"},{"bufferView":0,"byteOffset":54876,"componentType":5126,"count":629,"max":[0.012855000000000007,0.00626000000000002,0.00626000000000002],"min":[-0.00626000000000001,-0.00626000000000002,-0.01285500000000002],"type":"VEC3"},{"bufferView":0,"byteOffset":62424,"componentType":5126,"count":78,"max":[0.012855000000000016,0.008546036541842739,0.008569999999999993],"min":[0.01285499999999998,-0.008546036541842712,-0.008569999999999993],"type":"VEC3"},{"bufferView":0,"byteOffset":63360,"componentType":5126,"count":539,"max":[0.008198992538422047,0.008569999999999993,0.009955327937947857],"min":[-0.00995532793794787,-0.008570000000000022,-0.008198992538422047],"type":"VEC3"},{"bufferView":0,"byteOffset":69828,"componentType":5126,"count":88,"max":[0.005879967249295589,0.008569999999999965,-0.0016397985076844037],"min":[-0.00995532793794787,-0.008570000000000022,-0.008198992538422047],"type":"VEC3"},{"bufferView":0,"byteOffset":70884,"componentType":5126,"count":409,"max":[0.007314993809658688,0.00626000000000002,0.007821166217846782],"min":[-0.007821166217846799,-0.00626000000000002,-0.007314993809658688],"type":"VEC3"},{"bufferView":0,"byteOffset":75792,"componentType":5126,"count":88,"max":[0.008198992538422047,0.008569999999999993,0.009955327937947857],"min":[0.0016397985076844109,-0.008569999999999993,-0.005879967249295589],"type":"VEC3"},{"bufferView":1,"byteOffset":0,"componentType":5126,"count":58,"type":"VEC3"},{"bufferView":1,"byteOffset":696,"componentType":5126,"count":54,"type":"VEC3"},{"bufferView":1,"byteOffset":1344,"componentType":5126,"count":54,"type":"VEC3"},{"bufferView":1,"byteOffset":1992,"componentType":5126,"count":54,"type":"VEC3"},{"bufferView":1,"byteOffset":2640,"componentType":5126,"count":58,"type":"VEC3"},{"bufferView":1,"byteOffset":3336,"componentType":5126,"count":54,"type":"VEC3"},{"bufferView":1,"byteOffset":3984,"componentType":5126,"count":54,"type":"VEC3"},{"bufferView":1,"byteOffset":4632,"componentType":5126,"count":54,"type":"VEC3"},{"bufferView":1,"byteOffset":5280,"componentType":5126,"count":54,"type":"VEC3"},{"bufferView":1,"byteOffset":5928,"componentType":5126,"count":52,"type":"VEC3"},{"bufferView":1,"byteOffset":6552,"componentType":5126,"count":52,"type":"VEC3"},{"bufferView":1,"byteOffset":7176,"componentType":5126,"count":54,"type":"VEC3"},{"bufferView":1,"byteOffset":7824,"componentType":5126,"count":56,"type":"VEC3"},{"bufferView":1,"byteOffset":8496,"componentType":5126,"count":53,"type":"VEC3"},{"bufferView":1,"byteOffset":9132,"componentType":5126,"count":53,"type":"VEC3"},{"bufferView":1,"byteOffset":9768,"componentType":5126,"count":54,"type":"VEC3"},{"bufferView":1,"byteOffset":10416,"componentType":5126,"count":54,"type":"VEC3"},{"bufferView":1,"byteOffset":11064,"componentType":5126,"count":52,"type":"VEC3"},{"bufferView":1,"byteOffset":11688,"componentType":5126,"count":52,"type":"VEC3"},{"bufferView":1,"byteOffset":12312,"componentType":5126,"count":54,"type":"VEC3"},{"bufferView":1,"byteOffset":12960,"componentType":5126,"count":774,"type":"VEC3"},{"bufferView":1,"byteOffset":22248,"componentType":5126,"count":78,"type":"VEC3"},{"bufferView":1,"byteOffset":23184,"componentType":5126,"count":629,"type":"VEC3"},{"bufferView":1,"byteOffset":30732,"componentType":5126,"count":78,"type":"VEC3"},{"bufferView":1,"byteOffset":31668,"componentType":5126,"count":539,"type":"VEC3"},{"bufferView":1,"byteOffset":38136,"componentType":5126,"count":88,"type":"VEC3"},{"bufferView":1,"byteOffset":39192,"componentType":5126,"count":410,"type":"VEC3"},{"bufferView":1,"byteOffset":44112,"componentType":5126,"count":88,"type":"VEC3"},{"bufferView":1,"byteOffset":45168,"componentType":5126,"count":731,"type":"VEC3"},{"bufferView":1,"byteOffset":53940,"componentType":5126,"count":78,"type":"VEC3"},{"bufferView":1,"byteOffset":54876,"componentType":5126,"count":629,"type":"VEC3"},{"bufferView":1,"byteOffset":62424,"componentType":5126,"count":78,"type":"VEC3"},{"bufferView":1,"byteOffset":63360,"componentType":5126,"count":539,"type":"VEC3"},{"bufferView":1,"byteOffset":69828,"componentType":5126,"count":88,"type":"VEC3"},{"bufferView":1,"byteOffset":70884,"componentType":5126,"count":409,"type":"VEC3"},{"bufferView":1,"byteOffset":75792,"componentType":5126,"count":88,"type":"VEC3"},{"bufferView":2,"byteOffset":0,"componentType":5123,"count":168,"type":"SCALAR"},{"bufferView":2,"byteOffset":336,"componentType":5123,"count":162,"type":"SCALAR"},{"bufferView":2,"byteOffset":660,"componentType":5123,"count":162,"type":"SCALAR"},{"bufferView":2,"byteOffset":984,"componentType":5123,"count":156,"type":"SCALAR"},{"bufferView":2,"byteOffset":1296,"componentType":5123,"count":168,"type":"SCALAR"},{"bufferView":2,"byteOffset":1632,"componentType":5123,"count":162,"type":"SCALAR"},{"bufferView":2,"byteOffset":1956,"componentType":5123,"count":162,"type":"SCALAR"},{"bufferView":2,"byteOffset":2280,"componentType":5123,"count":156,"type":"SCALAR"},{"bufferView":2,"byteOffset":2592,"componentType":5123,"count":156,"type":"SCALAR"},{"bufferView":2,"byteOffset":2904,"componentType":5123,"count":156,"type":"SCALAR"},{"bufferView":2,"byteOffset":3216,"componentType":5123,"count":156,"type":"SCALAR"},{"bufferView":2,"byteOffset":3528,"componentType":5123,"count":156,"type":"SCALAR"},{"bufferView":2,"byteOffset":3840,"componentType":5123,"count":162,"type":"SCALAR"},{"bufferView":2,"byteOffset":4164,"componentType":5123,"count":159,"type":"SCALAR"},{"bufferView":2,"byteOffset":4484,"componentType":5123,"count":159,"type":"SCALAR"},{"bufferView":2,"byteOffset":4804,"componentType":5123,"count":156,"type":"SCALAR"},{"bufferView":2,"byteOffset":5116,"componentType":5123,"count":156,"type":"SCALAR"},{"bufferView":2,"byteOffset":5428,"componentType":5123,"count":156,"type":"SCALAR"},{"bufferView":2,"byteOffset":5740,"componentType":5123,"count":156,"type":"SCALAR"},{"bufferView":2,"byteOffset":6052,"componentType":5123,"count":156,"type":"SCALAR"},{"bufferView":2,"byteOffset":6364,"componentType":5123,"count":4284,"type":"SCALAR"},{"bufferView":2,"byteOffset":14932,"componentType":5123,"count":234,"type":"SCALAR"},{"bufferView":2,"byteOffset":15400,"componentType":5123,"count":3456,"type":"SCALAR"},{"bufferView":2,"byteOffset":22312,"componentType":5123,"count":234,"type":"SCALAR"},{"bufferView":2,"byteOffset":22780,"componentType":5123,"count":2880,"type":"SCALAR"},{"bufferView":2,"byteOffset":28540,"componentType":5123,"count":264,"type":"SCALAR"},{"bufferView":2,"byteOffset":29068,"componentType":5123,"count":2160,"type":"SCALAR"},{"bufferView":2,"byteOffset":33388,"componentType":5123,"count":264,"type":"SCALAR"},{"bufferView":2,"byteOffset":33916,"componentType":5123,"count":4032,"type":"SCALAR"},{"bufferView":2,"byteOffset":41980,"componentType":5123,"count":234,"type":"SCALAR"},{"bufferView":2,"byteOffset":42448,"componentType":5123,"count":3456,"type":"SCALAR"},{"bufferView":2,"byteOffset":49360,"componentType":5123,"count":234,"type":"SCALAR"},{"bufferView":2,"byteOffset":49828,"componentType":5123,"count":2880,"type":"SCALAR"},{"bufferView":2,"byteOffset":55588,"componentType":5123,"count":264,"type":"SCALAR"},{"bufferView":2,"byteOffset":56116,"componentType":5123,"count":2154,"type":"SCALAR"},{"bufferView":2,"byteOffset":60424,"componentType":5123,"count":264,"type":"SCALAR"}],"asset":{"generator":"Open CASCADE Technology 7.6 [dev.opencascade.org]","version":"2.0"},"bufferViews":[{"buffer":0,"byteLength":76848,"byteOffset":0,"byteStride":12,"target":34962},{"buffer":0,"byteLength":76848,"byteOffset":76848,"byteStride":12,"target":34962},{"buffer":0,"byteLength":60952,"byteOffset":153696,"target":34963}],"buffers":[{"byteLength":214648,"uri":"tubetest.bin"}],"materials":[{"name":"mat_0","pbrMetallicRoughness":{"baseColorFactor":[0.6038273572921753,0.6038273572921753,0.6038273572921753,1.0]},"doubleSided":true}],"meshes":[{"name":"Tubo","primitives":[{"attributes":{"NORMAL":36,"POSITION":0},"indices":72,"material":0,"mode":4},{"attributes":{"NORMAL":37,"POSITION":1},"indices":73,"material":0,"mode":4},{"attributes":{"NORMAL":38,"POSITION":2},"indices":74,"material":0,"mode":4},{"attributes":{"NORMAL":39,"POSITION":3},"indices":75,"material":0,"mode":4}]},{"name":"Tubo001","primitives":[{"attributes":{"NORMAL":40,"POSITION":4},"indices":76,"material":0,"mode":4},{"attributes":{"NORMAL":41,"POSITION":5},"indices":77,"material":0,"mode":4},{"attributes":{"NORMAL":42,"POSITION":6},"indices":78,"material":0,"mode":4},{"attributes":{"NORMAL":43,"POSITION":7},"indices":79,"material":0,"mode":4}]},{"name":"Tubo002","primitives":[{"attributes":{"NORMAL":44,"POSITION":8},"indices":80,"material":0,"mode":4},{"attributes":{"NORMAL":45,"POSITION":9},"indices":81,"material":0,"mode":4},{"attributes":{"NORMAL":46,"POSITION":10},"indices":82,"material":0,"mode":4},{"attributes":{"NORMAL":47,"POSITION":11},"indices":83,"material":0,"mode":4}]},{"name":"Tubo003","primitives":[{"attributes":{"NORMAL":48,"POSITION":12},"indices":84,"material":0,"mode":4},{"attributes":{"NORMAL":49,"POSITION":13},"indices":85,"material":0,"mode":4},{"attributes":{"NORMAL":50,"POSITION":14},"indices":86,"material":0,"mode":4},{"attributes":{"NORMAL":51,"POSITION":15},"indices":87,"material":0,"mode":4}]},{"name":"Tubo004","primitives":[{"attributes":{"NORMAL":52,"POSITION":16},"indices":88,"material":0,"mode":4},{"attributes":{"NORMAL":53,"POSITION":17},"indices":89,"material":0,"mode":4},{"attributes":{"NORMAL":54,"POSITION":18},"indices":90,"material":0,"mode":4},{"attributes":{"NORMAL":55,"POSITION":19},"indices":91,"material":0,"mode":4}]},{"name":"Curva","primitives":[{"attributes":{"NORMAL":56,"POSITION":20},"indices":92,"material":0,"mode":4},{"attributes":{"NORMAL":57,"POSITION":21},"indices":93,"material":0,"mode":4},{"attributes":{"NORMAL":58,"POSITION":22},"indices":94,"material":0,"mode":4},{"attributes":{"NORMAL":59,"POSITION":23},"indices":95,"material":0,"mode":4}]},{"name":"Curva001","primitives":[{"attributes":{"NORMAL":60,"POSITION":24},"indices":96,"material":0,"mode":4},{"attributes":{"NORMAL":61,"POSITION":25},"indices":97,"material":0,"mode":4},{"attributes":{"NORMAL":62,"POSITION":26},"indices":98,"material":0,"mode":4},{"attributes":{"NORMAL":63,"POSITION":27},"indices":99,"material":0,"mode":4}]},{"name":"Curva002","primitives":[{"attributes":{"NORMAL":64,"POSITION":28},"indices":100,"material":0,"mode":4},{"attributes":{"NORMAL":65,"POSITION":29},"indices":101,"material":0,"mode":4},{"attributes":{"NORMAL":66,"POSITION":30},"indices":102,"material":0,"mode":4},{"attributes":{"NORMAL":67,"POSITION":31},"indices":103,"material":0,"mode":4}]},{"name":"Curva003","primitives":[{"attributes":{"NORMAL":68,"POSITION":32},"indices":104,"material":0,"mode":4},{"attributes":{"NORMAL":69,"POSITION":33},"indices":105,"material":0,"mode":4},{"attributes":{"NORMAL":70,"POSITION":34},"indices":106,"material":0,"mode":4},{"attributes":{"NORMAL":71,"POSITION":35},"indices":107,"material":0,"mode":4}]},{"name":"Tubo","primitives":[{"attributes":{"NORMAL":36,"POSITION":0},"indices":72,"material":0,"mode":4},{"attributes":{"NORMAL":37,"POSITION":1},"indices":73,"material":0,"mode":4},{"attributes":{"NORMAL":38,"POSITION":2},"indices":74,"material":0,"mode":4},{"attributes":{"NORMAL":39,"POSITION":3},"indices":75,"material":0,"mode":4}]},{"name":"Tubo001","primitives":[{"attributes":{"NORMAL":40,"POSITION":4},"indices":76,"material":0,"mode":4},{"attributes":{"NORMAL":41,"POSITION":5},"indices":77,"material":0,"mode":4},{"attributes":{"NORMAL":42,"POSITION":6},"indices":78,"material":0,"mode":4},{"attributes":{"NORMAL":43,"POSITION":7},"indices":79,"material":0,"mode":4}]},{"name":"Tubo003","primitives":[{"attributes":{"NORMAL":48,"POSITION":12},"indices":84,"material":0,"mode":4},{"attributes":{"NORMAL":49,"POSITION":13},"indices":85,"material":0,"mode":4},{"attributes":{"NORMAL":50,"POSITION":14},"indices":86,"material":0,"mode":4},{"attributes":{"NORMAL":51,"POSITION":15},"indices":87,"material":0,"mode":4}]},{"name":"Tubo002","primitives":[{"attributes":{"NORMAL":44,"POSITION":8},"indices":80,"material":0,"mode":4},{"attributes":{"NORMAL":45,"POSITION":9},"indices":81,"material":0,"mode":4},{"attributes":{"NORMAL":46,"POSITION":10},"indices":82,"material":0,"mode":4},{"attributes":{"NORMAL":47,"POSITION":11},"indices":83,"material":0,"mode":4}]},{"name":"Tubo004","primitives":[{"attributes":{"NORMAL":52,"POSITION":16},"indices":88,"material":0,"mode":4},{"attributes":{"NORMAL":53,"POSITION":17},"indices":89,"material":0,"mode":4},{"attributes":{"NORMAL":54,"POSITION":18},"indices":90,"material":0,"mode":4},{"attributes":{"NORMAL":55,"POSITION":19},"indices":91,"material":0,"mode":4}]},{"name":"Curva","primitives":[{"attributes":{"NORMAL":56,"POSITION":20},"indices":92,"material":0,"mode":4},{"attributes":{"NORMAL":57,"POSITION":21},"indices":93,"material":0,"mode":4},{"attributes":{"NORMAL":58,"POSITION":22},"indices":94,"material":0,"mode":4},{"attributes":{"NORMAL":59,"POSITION":23},"indices":95,"material":0,"mode":4}]},{"name":"Curva001","primitives":[{"attributes":{"NORMAL":60,"POSITION":24},"indices":96,"material":0,"mode":4},{"attributes":{"NORMAL":61,"POSITION":25},"indices":97,"material":0,"mode":4},{"attributes":{"NORMAL":62,"POSITION":26},"indices":98,"material":0,"mode":4},{"attributes":{"NORMAL":63,"POSITION":27},"indices":99,"material":0,"mode":4}]},{"name":"Curva002","primitives":[{"attributes":{"NORMAL":64,"POSITION":28},"indices":100,"material":0,"mode":4},{"attributes":{"NORMAL":65,"POSITION":29},"indices":101,"material":0,"mode":4},{"attributes":{"NORMAL":66,"POSITION":30},"indices":102,"material":0,"mode":4},{"attributes":{"NORMAL":67,"POSITION":31},"indices":103,"material":0,"mode":4}]},{"name":"Curva003","primitives":[{"attributes":{"NORMAL":68,"POSITION":32},"indices":104,"material":0,"mode":4},{"attributes":{"NORMAL":69,"POSITION":33},"indices":105,"material":0,"mode":4},{"attributes":{"NORMAL":70,"POSITION":34},"indices":106,"material":0,"mode":4},{"attributes":{"NORMAL":71,"POSITION":35},"indices":107,"material":0,"mode":4}]}],"nodes":[{"children":[1,11,12,13,14,15,16,17,18,19],"name":"Unnamed"},{"children":[2,3,4,5,6,7,8,9,10],"name":"Traccia"},{"rotation":[0.6617227054420936,-0.29686225192843848,0.6079344781489245,0.32312773752831466],"mesh":0,"name":"Tubo"},{"rotation":[0.5364198038330247,-0.11609894984518385,0.07480148478765633,0.8325740602337708],"translation":[-0.08177852020452529,-0.056179062914848938,0.01792868003780426],"mesh":1,"name":"Tubo001"},{"rotation":[0.35368509739775585,0.26822551415898407,-0.10662669913057249,0.8897149388795307],"translation":[-0.10146674044269227,-0.01628907885168398,0.09730117812275237],"mesh":2,"name":"Tubo002"},{"rotation":[0.8291424664067925,0.1707024003385695,-0.38512343216457337,0.3675097317314075],"translation":[-0.042544408273906559,0.07403006450748963,0.1813140201381022],"mesh":3,"name":"Tubo003"},{"rotation":[0.9592765215231358,-0.04047102924912938,0.18612104237492636,0.20858956980458025],"translation":[0.005965539235200959,0.010660035215892563,0.22501590402271416],"mesh":4,"name":"Tubo004"},{"rotation":[0.05612043222523822,-0.6808100700839048,0.4013145290955092,0.6101596465647748],"translation":[-0.07857619699588749,-0.0614922537239618,0.006669632494477862],"mesh":5,"name":"Curva"},{"rotation":[-0.17629579974102448,-0.22708623018857466,0.3648594501496271,0.8855671723189191],"translation":[-0.10348730735635699,-0.020160547338101507,0.09425460054174928],"mesh":6,"name":"Curva001"},{"rotation":[-0.4613652780355778,-0.032605010437731809,-0.464611176702093,0.7551261139710412],"translation":[-0.04982222072093897,0.08266341277172057,0.17516993609454285],"mesh":7,"name":"Curva002"},{"rotation":[0.3492757397316574,-0.4122896367780626,0.7646338291754801,-0.3512247433207968],"translation":[0.006792422974373537,0.015503955251448623,0.22296522231437428],"mesh":8,"name":"Curva003"},{"rotation":[0.6617227054420936,-0.29686225192843848,0.6079344781489245,0.32312773752831466],"mesh":9,"name":"Tubo"},{"rotation":[0.5364198038330247,-0.11609894984518385,0.07480148478765633,0.8325740602337708],"translation":[-0.08177852020452529,-0.056179062914848938,0.01792868003780426],"mesh":10,"name":"Tubo001"},{"rotation":[0.8291424664067925,0.1707024003385695,-0.38512343216457337,0.3675097317314075],"translation":[-0.042544408273906559,0.07403006450748963,0.1813140201381022],"mesh":11,"name":"Tubo003"},{"rotation":[0.35368509739775585,0.26822551415898407,-0.10662669913057249,0.8897149388795307],"translation":[-0.10146674044269227,-0.01628907885168398,0.09730117812275237],"mesh":12,"name":"Tubo002"},{"rotation":[0.9592765215231358,-0.04047102924912938,0.18612104237492636,0.20858956980458025],"translation":[0.005965539235200959,0.010660035215892563,0.22501590402271416],"mesh":13,"name":"Tubo004"},{"rotation":[0.05612043222523822,-0.6808100700839048,0.4013145290955092,0.6101596465647748],"translation":[-0.07857619699588749,-0.0614922537239618,0.006669632494477862],"mesh":14,"name":"Curva"},{"rotation":[-0.17629579974102448,-0.22708623018857466,0.3648594501496271,0.8855671723189191],"translation":[-0.10348730735635699,-0.020160547338101507,0.09425460054174928],"mesh":15,"name":"Curva001"},{"rotation":[-0.4613652780355778,-0.032605010437731809,-0.464611176702093,0.7551261139710412],"translation":[-0.04982222072093897,0.08266341277172057,0.17516993609454285],"mesh":16,"name":"Curva002"},{"rotation":[0.3492757397316574,-0.4122896367780626,0.7646338291754801,-0.3512247433207968],"translation":[0.006792422974373537,0.015503955251448623,0.22296522231437428],"mesh":17,"name":"Curva003"}],"scene":0,"scenes":[{"nodes":[0]}]}