{"accessors":[{"bufferView":0,"byteOffset":0,"componentType":5126,"count":34,"max":[-0.04499999999999999,0.045,0.045],"min":[-0.045000000000000008,-0.045,-0.045],"type":"VEC3"},{"bufferView":0,"byteOffset":408,"componentType":5126,"count":34,"max":[0.045,0.045,0.045],"min":[-0.045,0.045,-0.045],"type":"VEC3"},{"bufferView":0,"byteOffset":816,"componentType":5126,"count":6,"max":[-0.00336038969321071,0.045,-0.00336038969321071],"min":[-0.045,0.015556349186104,-0.045],"type":"VEC3"},{"bufferView":0,"byteOffset":888,"componentType":5126,"count":34,"max":[0.045,0.045,-0.04499999999999999],"min":[-0.045,-0.045,-0.045000000000000008],"type":"VEC3"},{"bufferView":0,"byteOffset":1296,"componentType":5126,"count":6,"max":[-0.0033603896932107005,-0.015556349186104,-0.0033603896932107005],"min":[-0.045,-0.045,-0.045],"type":"VEC3"},{"bufferView":0,"byteOffset":1368,"componentType":5126,"count":34,"max":[0.045,-0.045,0.045],"min":[-0.045,-0.045,-0.045],"type":"VEC3"},{"bufferView":0,"byteOffset":1776,"componentType":5126,"count":6,"max":[-0.00336038969321069,-0.015556349186104,0.045],"min":[-0.045,-0.045,0.0033603896932107005],"type":"VEC3"},{"bufferView":0,"byteOffset":1848,"componentType":5126,"count":34,"max":[0.045,0.045,0.045000000000000008],"min":[-0.045,-0.045,0.04499999999999999],"type":"VEC3"},{"bufferView":0,"byteOffset":2256,"componentType":5126,"count":6,"max":[-0.0033603896932107204,0.045,0.045],"min":[-0.045,0.015556349186104,0.00336038969321071],"type":"VEC3"},{"bufferView":0,"byteOffset":2328,"componentType":5126,"count":54,"max":[-0.039999999999999997,0.027500000000000005,0.027299494037696504],"min":[-0.045000000000000008,-0.0275,-0.027299494037696497],"type":"VEC3"},{"bufferView":0,"byteOffset":2976,"componentType":5126,"count":6,"max":[0.045,0.045,-0.0033603896932107204],"min":[0.0033603896932107304,0.015556349186104,-0.045],"type":"VEC3"},{"bufferView":0,"byteOffset":3048,"componentType":5126,"count":34,"max":[0.045000000000000008,0.045,0.045],"min":[0.04499999999999999,-0.045,-0.045],"type":"VEC3"},{"bufferView":0,"byteOffset":3456,"componentType":5126,"count":6,"max":[0.045,0.045,0.045],"min":[0.00336038969321071,0.015556349186104,0.0033603896932107204],"type":"VEC3"},{"bufferView":0,"byteOffset":3528,"componentType":5126,"count":54,"max":[0.0275,0.045,0.027299494037696497],"min":[-0.0275,0.04,-0.02729949403769649],"type":"VEC3"},{"bufferView":0,"byteOffset":4176,"componentType":5126,"count":34,"max":[-0.039999999999999997,0.04,0.04],"min":[-0.04000000000000001,-0.04,-0.04],"type":"VEC3"},{"bufferView":0,"byteOffset":4584,"componentType":5126,"count":34,"max":[0.04,0.04,0.04],"min":[-0.04,0.04,-0.04],"type":"VEC3"},{"bufferView":0,"byteOffset":4992,"componentType":5126,"count":34,"max":[0.04,0.04,-0.039999999999999997],"min":[-0.04,-0.04,-0.04000000000000001],"type":"VEC3"},{"bufferView":0,"byteOffset":5400,"componentType":5126,"count":6,"max":[0.045,-0.015556349186104,-0.00336038969321071],"min":[0.0033603896932107204,-0.045,-0.045],"type":"VEC3"},{"bufferView":0,"byteOffset":5472,"componentType":5126,"count":54,"max":[0.0275,0.027299494037696494,-0.039999999999999997],"min":[-0.027500000000000008,-0.027299494037696507,-0.045000000000000008],"type":"VEC3"},{"bufferView":0,"byteOffset":6120,"componentType":5126,"count":34,"max":[0.04,-0.04,0.04],"min":[-0.04,-0.04,-0.04],"type":"VEC3"},{"bufferView":0,"byteOffset":6528,"componentType":5126,"count":6,"max":[0.045,-0.015556349186104,0.045],"min":[0.0033603896932107005,-0.045,0.00336038969321071],"type":"VEC3"},{"bufferView":0,"byteOffset":6600,"componentType":5126,"count":54,"max":[0.0275,-0.04,0.027299494037696497],"min":[-0.0275,-0.045,-0.02729949403769649],"type":"VEC3"},{"bufferView":0,"byteOffset":7248,"componentType":5126,"count":34,"max":[0.04,0.04,0.04000000000000001],"min":[-0.04,-0.04,0.039999999999999997],"type":"VEC3"},{"bufferView":0,"byteOffset":7656,"componentType":5126,"count":54,"max":[0.0275,0.027299494037696476,0.045000000000000008],"min":[-0.027500000000000008,-0.027299494037696528,0.039999999999999997],"type":"VEC3"},{"bufferView":0,"byteOffset":8304,"componentType":5126,"count":34,"max":[0.04000000000000001,0.04,0.04],"min":[0.039999999999999997,-0.04,-0.04],"type":"VEC3"},{"bufferView":0,"byteOffset":8712,"componentType":5126,"count":54,"max":[0.045000000000000008,0.027499999999999987,0.027299494037696504],"min":[0.039999999999999997,-0.0275,-0.027299494037696497],"type":"VEC3"},{"bufferView":1,"byteOffset":0,"componentType":5126,"count":34,"type":"VEC3"},{"bufferView":1,"byteOffset":408,"componentType":5126,"count":34,"type":"VEC3"},{"bufferView":1,"byteOffset":816,"componentType":5126,"count":6,"type":"VEC3"},{"bufferView":1,"byteOffset":888,"componentType":5126,"count":34,"type":"VEC3"},{"bufferView":1,"byteOffset":1296,"componentType":5126,"count":6,"type":"VEC3"},{"bufferView":1,"byteOffset":1368,"componentType":5126,"count":34,"type":"VEC3"},{"bufferView":1,"byteOffset":1776,"componentType":5126,"count":6,"type":"VEC3"},{"bufferView":1,"byteOffset":1848,"componentType":5126,"count":34,"type":"VEC3"},{"bufferView":1,"byteOffset":2256,"componentType":5126,"count":6,"type":"VEC3"},{"bufferView":1,"byteOffset":2328,"componentType":5126,"count":54,"type":"VEC3"},{"bufferView":1,"byteOffset":2976,"componentType":5126,"count":6,"type":"VEC3"},{"bufferView":1,"byteOffset":3048,"componentType":5126,"count":34,"type":"VEC3"},{"bufferView":1,"byteOffset":3456,"componentType":5126,"count":6,"type":"VEC3"},{"bufferView":1,"byteOffset":3528,"componentType":5126,"count":54,"type":"VEC3"},{"bufferView":1,"byteOffset":4176,"componentType":5126,"count":34,"type":"VEC3"},{"bufferView":1,"byteOffset":4584,"componentType":5126,"count":34,"type":"VEC3"},{"bufferView":1,"byteOffset":4992,"componentType":5126,"count":34,"type":"VEC3"},{"bufferView":1,"byteOffset":5400,"componentType":5126,"count":6,"type":"VEC3"},{"bufferView":1,"byteOffset":5472,"componentType":5126,"count":54,"type":"VEC3"},{"bufferView":1,"byteOffset":6120,"componentType":5126,"count":34,"type":"VEC3"},{"bufferView":1,"byteOffset":6528,"componentType":5126,"count":6,"type":"VEC3"},{"bufferView":1,"byteOffset":6600,"componentType":5126,"count":54,"type":"VEC3"},{"bufferView":1,"byteOffset":7248,"componentType":5126,"count":34,"type":"VEC3"},{"bufferView":1,"byteOffset":7656,"componentType":5126,"count":54,"type":"VEC3"},{"bufferView":1,"byteOffset":8304,"componentType":5126,"count":34,"type":"VEC3"},{"bufferView":1,"byteOffset":8712,"componentType":5126,"count":54,"type":"VEC3"},{"bufferView":2,"byteOffset":0,"componentType":5123,"count":102,"type":"SCALAR"},{"bufferView":2,"byteOffset":204,"componentType":5123,"count":102,"type":"SCALAR"},{"bufferView":2,"byteOffset":408,"componentType":5123,"count":18,"type":"SCALAR"},{"bufferView":2,"byteOffset":444,"componentType":5123,"count":102,"type":"SCALAR"},{"bufferView":2,"byteOffset":648,"componentType":5123,"count":18,"type":"SCALAR"},{"bufferView":2,"byteOffset":684,"componentType":5123,"count":102,"type":"SCALAR"},{"bufferView":2,"byteOffset":888,"componentType":5123,"count":18,"type":"SCALAR"},{"bufferView":2,"byteOffset":924,"componentType":5123,"count":102,"type":"SCALAR"},{"bufferView":2,"byteOffset":1128,"componentType":5123,"count":18,"type":"SCALAR"},{"bufferView":2,"byteOffset":1164,"componentType":5123,"count":156,"type":"SCALAR"},{"bufferView":2,"byteOffset":1476,"componentType":5123,"count":18,"type":"SCALAR"},{"bufferView":2,"byteOffset":1512,"componentType":5123,"count":102,"type":"SCALAR"},{"bufferView":2,"byteOffset":1716,"componentType":5123,"count":18,"type":"SCALAR"},{"bufferView":2,"byteOffset":1752,"componentType":5123,"count":156,"type":"SCALAR"},{"bufferView":2,"byteOffset":2064,"componentType":5123,"count":102,"type":"SCALAR"},{"bufferView":2,"byteOffset":2268,"componentType":5123,"count":102,"type":"SCALAR"},{"bufferView":2,"byteOffset":2472,"componentType":5123,"count":102,"type":"SCALAR"},{"bufferView":2,"byteOffset":2676,"componentType":5123,"count":18,"type":"SCALAR"},{"bufferView":2,"byteOffset":2712,"componentType":5123,"count":156,"type":"SCALAR"},{"bufferView":2,"byteOffset":3024,"componentType":5123,"count":102,"type":"SCALAR"},{"bufferView":2,"byteOffset":3228,"componentType":5123,"count":18,"type":"SCALAR"},{"bufferView":2,"byteOffset":3264,"componentType":5123,"count":156,"type":"SCALAR"},{"bufferView":2,"byteOffset":3576,"componentType":5123,"count":102,"type":"SCALAR"},{"bufferView":2,"byteOffset":3780,"componentType":5123,"count":156,"type":"SCALAR"},{"bufferView":2,"byteOffset":4092,"componentType":5123,"count":102,"type":"SCALAR"},{"bufferView":2,"byteOffset":4296,"componentType":5123,"count":156,"type":"SCALAR"}],"asset":{"generator":"Open CASCADE Technology 7.6 [dev.opencascade.org]","version":"2.0"},"bufferViews":[{"buffer":0,"byteLength":9360,"byteOffset":0,"byteStride":12,"target":34962},{"buffer":0,"byteLength":9360,"byteOffset":9360,"byteStride":12,"target":34962},{"buffer":0,"byteLength":4608,"byteOffset":18720,"target":34963}],"buffers":[{"byteLength":23328,"uri":"WhiffleBall_Tutorial_FCWiki-Cut004.bin"}],"materials":[{"name":"mat_0","pbrMetallicRoughness":{"baseColorFactor":[0.6038273572921753,0.6038273572921753,0.6038273572921753,1.0]},"doubleSided":true}],"meshes":[{"name":"Cut004","primitives":[{"attributes":{"NORMAL":26,"POSITION":0},"indices":52,"material":0,"mode":4},{"attributes":{"NORMAL":27,"POSITION":1},"indices":53,"material":0,"mode":4},{"attributes":{"NORMAL":28,"POSITION":2},"indices":54,"material":0,"mode":4},{"attributes":{"NORMAL":29,"POSITION":3},"indices":55,"material":0,"mode":4},{"attributes":{"NORMAL":30,"POSITION":4},"indices":56,"material":0,"mode":4},{"attributes":{"NORMAL":31,"POSITION":5},"indices":57,"material":0,"mode":4},{"attributes":{"NORMAL":32,"POSITION":6},"indices":58,"material":0,"mode":4},{"attributes":{"NORMAL":33,"POSITION":7},"indices":59,"material":0,"mode":4},{"attributes":{"NORMAL":34,"POSITION":8},"indices":60,"material":0,"mode":4},{"attributes":{"NORMAL":35,"POSITION":9},"indices":61,"material":0,"mode":4},{"attributes":{"NORMAL":36,"POSITION":10},"indices":62,"material":0,"mode":4},{"attributes":{"NORMAL":37,"POSITION":11},"indices":63,"material":0,"mode":4},{"attributes":{"NORMAL":38,"POSITION":12},"indices":64,"material":0,"mode":4},{"attributes":{"NORMAL":39,"POSITION":13},"indices":65,"material":0,"mode":4},{"attributes":{"NORMAL":40,"POSITION":14},"indices":66,"material":0,"mode":4},{"attributes":{"NORMAL":41,"POSITION":15},"indices":67,"material":0,"mode":4},{"attributes":{"NORMAL":42,"POSITION":16},"indices":68,"material":0,"mode":4},{"attributes":{"NORMAL":43,"POSITION":17},"indices":69,"material":0,"mode":4},{"attributes":{"NORMAL":44,"POSITION":18},"indices":70,"material":0,"mode":4},{"attributes":{"NORMAL":45,"POSITION":19},"indices":71,"material":0,"mode":4},{"attributes":{"NORMAL":46,"POSITION":20},"indices":72,"material":0,"mode":4},{"attributes":{"NORMAL":47,"POSITION":21},"indices":73,"material":0,"mode":4},{"attributes":{"NORMAL":48,"POSITION":22},"indices":74,"material":0,"mode":4},{"attributes":{"NORMAL":49,"POSITION":23},"indices":75,"material":0,"mode":4},{"attributes":{"NORMAL":50,"POSITION":24},"indices":76,"material":0,"mode":4},{"attributes":{"NORMAL":51,"POSITION":25},"indices":77,"material":0,"mode":4}]}],"nodes":[{"mesh":0,"name":"Cut004"}],"scene":0,"scenes":[{"nodes":[0]}]}